<?xml version="1.0" encoding="UTF-8"?>
<svg width="68.095mm" height="75.161mm" version="1.1" viewBox="0 0 68.095 75.161" xmlns="http://www.w3.org/2000/svg">
 <g>
  <path transform="translate(332.19 -10.903)" d="m-307.39 15.674-5.3893 9.3348h-18.408v10.521a6.0297 6.0297 0 0 1 0.01-5.2e-4 6.0297 6.0297 0 0 1 6.0301 6.0301 6.0297 6.0297 0 0 1-6.0301 6.0296 6.0297 6.0297 0 0 1-0.01-5.2e-4v1.5916a6.0297 6.0297 0 0 1 0.01-5.2e-4 6.0297 6.0297 0 0 1 6.0301 6.0296 6.0297 6.0297 0 0 1-6.0301 6.0301 6.0297 6.0297 0 0 1-0.01-5.2e-4v1.4842a6.0297 6.0297 0 0 1 0.01-5.2e-4 6.0297 6.0297 0 0 1 6.0301 6.0296 6.0297 6.0297 0 0 1-6.0301 6.0296 6.0297 6.0297 0 0 1-0.01-5.18e-4v10.283h18.408l5.3893-9.3348 5.3894 9.3348h1.5115l5.3894-9.3348 5.3893 9.3348h18.578v-23.825a6.0297 6.0297 0 0 0 0.01 5.1e-4 6.0297 6.0297 0 0 0 6.0301-6.0296 6.0297 6.0297 0 0 0-6.0301-6.0296 6.0297 6.0297 0 0 0-0.01 5.2e-4v-24.171h-18.578l-5.3893-9.3348-5.3894 9.3348h-1.5115z" 
  fill="#F0ECE2" stroke="#000" stroke-width="2"/>
 </g>
</svg>
