<?xml version="1.0" encoding="UTF-8"?>
<svg width="68.095mm" height="75.161mm" version="1.1" viewBox="0 0 68.095 75.161" xmlns="http://www.w3.org/2000/svg">
 <g>
  <path transform="translate(332.19 -10.903)" d="m-307.39 15.674-5.3893 9.3348h-18.408v16.874a6.0297 6.0297 0 0 1 0.01-5.1e-4 6.0297 6.0297 0 0 1 6.0296 6.0301 6.0297 6.0297 0 0 1-6.0296 6.0296 6.0297 6.0297 0 0 1-0.01-5.2e-4v2.4314a6.0297 6.0297 0 0 1 0.01-5.2e-4 6.0297 6.0297 0 0 1 6.0296 6.0296 6.0297 6.0297 0 0 1-6.0296 6.0296 6.0297 6.0297 0 0 1-0.01-5.1e-4v16.633h60.055v-16.633a6.0297 6.0297 0 0 0 0.01 5.1e-4 6.0297 6.0297 0 0 0 6.0296-6.0296 6.0297 6.0297 0 0 0-6.0296-6.0296 6.0297 6.0297 0 0 0-0.01 5.2e-4v-2.4314a6.0297 6.0297 0 0 0 0.01 5.2e-4 6.0297 6.0297 0 0 0 6.0296-6.0296 6.0297 6.0297 0 0 0-6.0296-6.0301 6.0297 6.0297 0 0 0-0.01 5.1e-4v-16.874h-18.578l-5.3893-9.3348-5.3894 9.3348h-1.5115z" 
  fill="#F0ECE2" stroke="#000" stroke-width="2"/>
 </g>
</svg>
