<?xml version="1.0" encoding="UTF-8"?>
<svg width="68.095mm" height="75.161mm" version="1.1" viewBox="0 0 68.095 75.161" xmlns="http://www.w3.org/2000/svg">
 <g transform="translate(895.54 161.53)">
  <path d="m-894.54-147.43v16.874a6.0297 6.0297 0 0 1 0.01-5.2e-4 6.0297 6.0297 0 0 1 6.0296 6.0301 6.0297 6.0297 0 0 1-6.0296 6.0296 6.0297 6.0297 0 0 1-0.01-5.2e-4v2.4314a6.0297 6.0297 0 0 1 0.01-5.2e-4 6.0297 6.0297 0 0 1 6.0296 6.0296 6.0297 6.0297 0 0 1-6.0296 6.0296 6.0297 6.0297 0 0 1-0.01-5.2e-4v16.633h22.945l6.9892-12.106 6.9893 12.106h23.131v-16.633a6.0297 6.0297 0 0 0 0.01 5.2e-4 6.0297 6.0297 0 0 0 6.0296-6.0296 6.0297 6.0297 0 0 0-6.0296-6.0296 6.0297 6.0297 0 0 0-0.01 5.2e-4v-2.4314a6.0297 6.0297 0 0 0 0.01 5.2e-4 6.0297 6.0297 0 0 0 6.0296-6.0296 6.0297 6.0297 0 0 0-6.0296-6.0301 6.0297 6.0297 0 0 0-0.01 5.2e-4v-16.874z" 
  fill="#F0ECE2" stroke="#000" stroke-width="2"/>
 </g>
</svg>
