<?xml version="1.0" encoding="UTF-8"?>
<svg width="68.095mm" height="75.161mm" version="1.1" viewBox="0 0 68.095 75.161" xmlns="http://www.w3.org/2000/svg">
 <g>
  <path transform="translate(332.19 -10.903)" d="m-301.25 12.903-6.9892 12.106h-22.945v60.055h18.408l5.3893-9.3348 5.3894 9.3348h1.5115l5.3893-9.3348 5.3893 9.3348h18.578v-10.283a6.0297 6.0297 0 0 0 0.01 5.16e-4 6.0297 6.0297 0 0 0 6.0301-6.0296 6.0297 6.0297 0 0 0-6.0301-6.0296 6.0297 6.0297 0 0 0-0.01 5.2e-4v-1.4842a6.0297 6.0297 0 0 0 0.01 5.2e-4 6.0297 6.0297 0 0 0 6.0301-6.0301 6.0297 6.0297 0 0 0-6.0301-6.0296 6.0297 6.0297 0 0 0-0.01 5.2e-4v-1.5916a6.0297 6.0297 0 0 0 0.01 5.2e-4 6.0297 6.0297 0 0 0 6.0301-6.0296 6.0297 6.0297 0 0 0-6.0301-6.0301 6.0297 6.0297 0 0 0-0.01 5.2e-4v-10.521h-23.131z" 
  fill="#F0ECE2" stroke="#000" stroke-width="2"/>
 </g>
</svg>
