<?xml version="1.0" encoding="UTF-8"?>
<svg width="68.095mm" height="75.161mm" version="1.1" viewBox="0 0 68.095 75.161" xmlns="http://www.w3.org/2000/svg">
 <g>
  <path transform="translate(332.19 -10.903)" d="m-312.33 16.437-4.9485 8.5711h-13.903v24.172a6.0297 6.0297 0 0 1 0.0104-5.2e-4 6.0297 6.0297 0 0 1 6.0301 6.0296 6.0297 6.0297 0 0 1-6.0301 6.0296 6.0297 6.0297 0 0 1-0.0104-5.1e-4v23.825h18.408l5.3893-9.3348 5.3894 9.3348h1.5115l5.3894-9.3348 5.3893 9.3348h18.578v-10.283a6.0297 6.0297 0 0 0 0.0103 5.16e-4 6.0297 6.0297 0 0 0 6.0301-6.0296 6.0297 6.0297 0 0 0-6.0301-6.0296 6.0297 6.0297 0 0 0-0.0103 5.1e-4v-1.4841a6.0297 6.0297 0 0 0 0.0103 5.1e-4 6.0297 6.0297 0 0 0 6.0301-6.0301 6.0297 6.0297 0 0 0-6.0301-6.0296 6.0297 6.0297 0 0 0-0.0103 5.1e-4v-1.5916a6.0297 6.0297 0 0 0 0.0103 5.1e-4 6.0297 6.0297 0 0 0 6.0301-6.0296 6.0297 6.0297 0 0 0-6.0301-6.0301 6.0297 6.0297 0 0 0-0.0103 5.1e-4v-10.521h-14.092l-4.948-8.5711-4.9485 8.5711h-1.1849l-4.948-8.5711-4.948 8.5711h-1.186z" 
  fill="#F0ECE2" stroke="#000" stroke-width="2"/>
 </g>
</svg>
