<?xml version="1.0" encoding="UTF-8"?>
<svg xmlns="http://www.w3.org/2000/svg" xmlns:xlink="http://www.w3.org/1999/xlink" width="356.2pt" height="238.84pt" viewBox="0 0 356.2 238.84" version="1.1">
<defs>
<clipPath id="clip1">
  <path d="M 0 0 L 356.199219 0 L 356.199219 238.839844 L 0 238.839844 Z M 0 0 "/>
</clipPath>
<clipPath id="clip2">
  <path d="M 29 11 L 345.5 11 L 345.5 228.140625 L 29 228.140625 Z M 29 11 "/>
</clipPath>
</defs>
<g id="surface1">
<g clip-path="url(#clip1)" clip-rule="nonzero">
<path style=" stroke:none;fill-rule:nonzero;fill:rgb(100%,100%,100%);fill-opacity:1;" d="M 0 238.839844 L 356.199219 238.839844 L 356.199219 0 L 0 0 Z M 0 238.839844 "/>
</g>
<path style=" stroke:none;fill-rule:nonzero;fill:rgb(100%,100%,100%);fill-opacity:1;" d="M 10.699219 228.140625 L 345.5 228.140625 L 345.5 10.699219 L 10.699219 10.699219 Z M 10.699219 228.140625 "/>
<g clip-path="url(#clip2)" clip-rule="nonzero">
<path style="fill:none;stroke-width:0.5;stroke-linecap:square;stroke-linejoin:round;stroke:rgb(0%,0%,0%);stroke-opacity:1;stroke-miterlimit:10;" d="M 180.621094 2.394688 L 180.851562 2.925938 L 181.195312 3.394688 L 182.21875 4.215 L 183.691406 4.972813 L 186.886719 6.207188 L 198.257812 10.273594 L 204.199219 12.632969 L 211.644531 15.894688 L 216.03125 17.980625 L 220.914062 20.449375 L 226.335938 23.382969 L 232.335938 26.863438 L 238.957031 30.99625 L 246.21875 35.9025 L 254.136719 41.711094 L 262.707031 48.570469 L 271.886719 56.629063 L 281.601562 66.039219 L 291.714844 76.929844 L 302.023438 89.386875 L 312.242188 103.422031 L 321.984375 118.937656 L 330.777344 135.672031 L 338.046875 153.160313 L 343.179688 170.726719 L 345.574219 187.476719 L 344.710938 202.394688 L 340.28125 214.441563 L 332.261719 222.769688 L 320.953125 226.879063 L 306.976562 226.742344 L 291.164062 222.80875 L 274.425781 215.898594 L 257.59375 207.000156 L 241.355469 197.101719 L 226.171875 187.0275 L 212.316406 177.379063 L 170.867188 147.957188 L 157.226562 138.7775 L 146.964844 132.195469 L 119.296875 115.082188 L 116.894531 113.820469 L 114.644531 112.87125 L 112.46875 112.250156 L 110.339844 111.972813 L 108.25 112.054844 L 106.207031 112.504063 L 104.25 113.316563 L 102.425781 114.472813 L 100.789062 115.945469 L 99.402344 117.68375 L 98.332031 119.613438 L 97.625 121.648594 L 97.324219 123.691563 L 97.449219 125.632969 L 97.671875 126.535313 L 97.996094 127.37125 L 98.417969 128.136875 L 98.933594 128.816563 L 99.535156 129.4025 L 100.214844 129.886875 L 100.960938 130.265781 L 101.765625 130.535313 L 102.617188 130.695469 L 103.507812 130.742344 L 105.347656 130.507969 L 107.195312 129.859531 L 108.972656 128.843906 L 110.609375 127.519688 L 112.039062 125.961094 L 113.21875 124.230625 L 114.113281 122.4025 L 114.703125 120.539219 L 114.972656 118.711094 L 114.921875 116.972813 L 114.554688 115.375156 L 113.886719 113.976719 L 112.933594 112.812656 L 111.722656 111.929844 L 110.292969 111.359531 L 108.679688 111.136875 L 106.933594 111.281406 L 105.121094 111.804844 L 103.304688 112.711094 L 101.5625 113.980625 L 99.96875 115.578281 L 98.613281 117.457188 L 97.5625 119.535313 L 96.886719 121.722813 L 96.632812 123.910313 L 96.671875 124.968906 L 96.824219 125.984531 L 97.085938 126.945469 L 97.457031 127.836094 L 97.933594 128.644688 L 98.503906 129.359531 L 99.164062 129.972813 L 99.90625 130.476719 L 100.71875 130.867344 L 101.589844 131.140781 L 102.511719 131.297031 L 103.464844 131.328281 L 104.445312 131.242344 L 106.425781 130.734531 L 108.363281 129.812656 L 110.179688 128.539219 L 111.796875 126.980625 L 113.167969 125.211094 L 114.25 123.312656 L 115.019531 121.347813 L 115.453125 119.390781 L 115.546875 117.504063 L 115.308594 115.74625 L 114.746094 114.168125 L 113.871094 112.820469 L 112.714844 111.742344 L 111.304688 110.980625 L 109.683594 110.570469 L 107.894531 110.535313 L 106 110.898594 L 104.0625 111.664219 L 102.164062 112.828281 L 100.382812 114.367344 L 98.808594 116.230625 L 97.523438 118.355625 L 96.609375 120.648594 L 96.121094 122.99625 L 96.050781 124.156406 L 96.101562 125.281406 L 96.273438 126.363438 L 96.5625 127.382969 L 96.96875 128.328281 L 97.484375 129.179844 L 98.101562 129.937656 L 98.816406 130.582188 L 99.617188 131.109531 L 100.488281 131.511875 L 101.425781 131.789219 L 102.410156 131.937656 L 103.433594 131.957188 L 104.476562 131.851719 L 105.535156 131.625156 L 107.628906 130.832188 L 109.625 129.629063 L 111.441406 128.093906 L 113.019531 126.30875 L 114.304688 124.343906 L 115.269531 122.285313 L 115.886719 120.203281 L 116.152344 118.168125 L 116.0625 116.242344 L 115.625 114.480625 L 114.851562 112.93375 L 113.769531 111.656406 L 112.402344 110.687656 L 110.792969 110.066563 L 108.976562 109.828281 L 107.015625 110.000156 L 104.972656 110.597813 L 102.925781 111.625156 L 100.960938 113.066563 L 99.164062 114.882969 L 97.628906 117.019688 L 96.449219 119.386875 L 96.015625 120.625156 L 95.695312 121.882969 L 95.5 123.136875 L 95.429688 124.375156 L 95.488281 125.578281 L 95.671875 126.730625 L 95.988281 127.816563 L 96.425781 128.820469 L 96.984375 129.730625 L 97.652344 130.531406 L 98.417969 131.211094 L 99.277344 131.765781 L 100.214844 132.187656 L 101.21875 132.472813 L 102.273438 132.62125 L 103.367188 132.632969 L 104.480469 132.507969 L 105.605469 132.254063 L 106.730469 131.879063 L 108.910156 130.785313 L 110.941406 129.304844 L 112.738281 127.519688 L 114.25 125.511875 L 115.433594 123.367344 L 116.257812 121.168125 L 116.714844 118.984531 L 116.796875 116.886875 L 116.507812 114.93375 L 115.863281 113.18375 L 114.878906 111.687656 L 113.582031 110.492344 L 112.828125 110.023594 L 112.003906 109.644688 L 111.125 109.363438 L 110.1875 109.18375 L 108.183594 109.136875 L 106.050781 109.535313 L 103.871094 110.386875 L 101.722656 111.687656 L 99.703125 113.418125 L 97.910156 115.5275 L 97.132812 116.699375 L 96.445312 117.937656 L 95.863281 119.226719 L 95.398438 120.547031 L 95.054688 121.886875 L 94.839844 123.226719 L 94.761719 124.550938 L 94.824219 125.84 L 95.023438 127.074375 L 95.359375 128.234531 L 95.828125 129.30875 L 96.421875 130.281406 L 97.136719 131.132969 L 97.960938 131.859531 L 98.882812 132.449375 L 99.886719 132.898594 L 100.957031 133.195469 L 102.085938 133.347813 L 103.253906 133.355625 L 104.441406 133.215 L 105.644531 132.937656 L 106.839844 132.531406 L 108.015625 132.000156 L 110.261719 130.609531 L 112.296875 128.851719 L 114.054688 126.820469 L 115.480469 124.605625 L 116.539062 122.293125 L 117.214844 119.968906 L 117.496094 117.695469 L 117.390625 115.550938 L 116.898438 113.586094 L 116.039062 111.863438 L 115.480469 111.105625 L 114.835938 110.429844 L 114.117188 109.836094 L 113.320312 109.336094 L 112.457031 108.929844 L 111.527344 108.62125 L 110.542969 108.422031 L 109.503906 108.332188 L 108.425781 108.355625 L 107.308594 108.492344 L 106.167969 108.754063 L 105.011719 109.132969 L 103.851562 109.632969 L 102.699219 110.254063 L 101.566406 110.99625 L 100.460938 111.851719 L 99.40625 112.816563 L 98.40625 113.882969 L 97.480469 115.043125 L 96.640625 116.289219 L 95.898438 117.605625 L 95.269531 118.976719 L 94.757812 120.386875 L 94.382812 121.816563 L 94.144531 123.254063 L 94.050781 124.672031 L 94.105469 126.050938 L 94.308594 127.375156 L 94.660156 128.625156 L 95.15625 129.781406 L 95.789062 130.824375 L 96.550781 131.742344 L 97.425781 132.523594 L 98.410156 133.156406 L 99.480469 133.636875 L 100.625 133.961094 L 101.832031 134.125156 L 103.074219 134.129063 L 104.347656 133.984531 L 105.628906 133.687656 L 106.902344 133.250156 L 108.15625 132.68375 L 109.375 131.99625 L 110.546875 131.199375 L 112.710938 129.328281 L 114.578125 127.172031 L 116.089844 124.824375 L 117.214844 122.375156 L 117.933594 119.914219 L 118.242188 117.515781 L 118.136719 115.242344 L 117.632812 113.164219 L 117.234375 112.215 L 116.742188 111.332188 L 116.160156 110.5275 L 115.488281 109.800938 L 114.734375 109.168125 L 113.902344 108.625156 L 112.996094 108.179844 L 112.023438 107.843906 L 110.988281 107.617344 L 109.894531 107.504063 L 108.757812 107.511875 L 107.578125 107.640781 L 106.371094 107.894688 L 105.144531 108.2775 L 103.914062 108.789219 L 102.683594 109.429844 L 101.472656 110.195469 L 100.292969 111.086094 L 99.15625 112.097813 L 98.082031 113.218906 L 97.078125 114.445469 L 96.167969 115.757969 L 95.359375 117.1525 L 94.667969 118.613438 L 94.105469 120.117344 L 93.679688 121.644688 L 93.40625 123.18375 L 93.285156 124.703281 L 93.328125 126.191563 L 93.527344 127.617344 L 93.886719 128.965 L 94.402344 130.215 L 95.066406 131.343906 L 95.867188 132.343906 L 96.796875 133.191563 L 97.839844 133.882969 L 98.980469 134.410313 L 100.203125 134.765781 L 101.484375 134.953281 L 102.816406 134.968906 L 104.171875 134.816563 L 105.539062 134.507969 L 106.898438 134.050938 L 108.234375 133.453281 L 109.539062 132.722813 L 110.789062 131.882969 L 111.980469 130.93375 L 114.136719 128.789219 L 115.945312 126.386875 L 117.363281 123.84 L 118.355469 121.230625 L 118.917969 118.648594 L 119.046875 116.164219 L 118.75 113.847813 L 118.445312 112.769688 L 118.035156 111.757969 L 117.53125 110.816563 L 116.929688 109.953281 L 116.238281 109.175938 L 115.457031 108.488438 L 114.589844 107.898594 L 113.648438 107.410313 L 112.628906 107.031406 L 111.542969 106.765781 L 110.398438 106.62125 L 109.203125 106.601719 L 107.960938 106.707188 L 106.683594 106.949375 L 105.386719 107.324375 L 104.074219 107.836094 L 102.765625 108.488438 L 101.46875 109.273594 L 100.203125 110.191563 L 98.980469 111.242344 L 97.816406 112.410313 L 96.730469 113.695469 L 95.734375 115.082188 L 94.84375 116.554844 L 94.078125 118.101719 L 93.445312 119.703281 L 92.960938 121.336094 L 92.632812 122.984531 L 92.472656 124.62125 L 92.484375 126.222813 L 92.667969 127.769688 L 93.023438 129.230625 L 93.550781 130.59 L 94.238281 131.824375 L 95.074219 132.918125 L 96.050781 133.851719 L 97.152344 134.617344 L 98.359375 135.207188 L 99.65625 135.613438 L 101.023438 135.832188 L 102.441406 135.87125 L 103.886719 135.730625 L 105.347656 135.418125 L 106.804688 134.945469 L 108.234375 134.320469 L 109.628906 133.55875 L 110.96875 132.672031 L 112.242188 131.675938 L 113.445312 130.582188 L 114.558594 129.406406 L 116.503906 126.87125 L 118.03125 124.175938 L 119.117188 121.414219 L 119.746094 118.675938 L 119.917969 116.043125 L 119.835938 114.785313 L 119.644531 113.578281 L 119.34375 112.429844 L 118.933594 111.347813 L 118.421875 110.336094 L 117.8125 109.406406 L 117.101562 108.562656 L 116.296875 107.812656 L 115.40625 107.164219 L 114.425781 106.617344 L 113.371094 106.18375 L 112.238281 105.87125 L 111.042969 105.68375 L 109.789062 105.62125 L 108.484375 105.695469 L 107.140625 105.910313 L 105.765625 106.265781 L 104.375 106.765781 L 102.976562 107.414219 L 101.59375 108.207188 L 100.230469 109.144688 L 98.910156 110.218906 L 97.648438 111.429844 L 96.460938 112.765781 L 95.363281 114.218906 L 94.375 115.769688 L 93.515625 117.4025 L 92.796875 119.105625 L 92.230469 120.847813 L 91.832031 122.613438 L 91.613281 124.375156 L 91.578125 126.109531 L 91.726562 127.785313 L 92.0625 129.379063 L 92.582031 130.867344 L 93.28125 132.230625 L 94.144531 133.437656 L 95.160156 134.480625 L 96.3125 135.343906 L 97.585938 136.015781 L 98.957031 136.492344 L 100.410156 136.769688 L 101.917969 136.843906 L 103.464844 136.730625 L 105.023438 136.429844 L 106.582031 135.953281 L 108.117188 135.312656 L 109.613281 134.523594 L 111.054688 133.597813 L 112.425781 132.554844 L 113.71875 131.406406 L 114.921875 130.172031 L 116.027344 128.863438 L 117.027344 127.49625 L 117.917969 126.086094 L 118.695312 124.644688 L 119.894531 121.722813 L 120.316406 120.265781 L 120.617188 118.824375 L 120.796875 117.406406 L 120.855469 116.023594 L 120.800781 114.68375 L 120.628906 113.394688 L 120.339844 112.164219 L 119.941406 111.000156 L 119.433594 109.914219 L 118.816406 108.9025 L 118.097656 107.984531 L 117.28125 107.160313 L 116.367188 106.437656 L 115.363281 105.820469 L 114.273438 105.324375 L 113.105469 104.945469 L 111.863281 104.695469 L 110.554688 104.582188 L 109.1875 104.605625 L 107.773438 104.773594 L 106.324219 105.093906 L 104.851562 105.566563 L 103.363281 106.191563 L 101.882812 106.976719 L 100.417969 107.914219 L 98.988281 109.004063 L 97.613281 110.242344 L 96.308594 111.617344 L 95.09375 113.125156 L 93.992188 114.74625 L 93.015625 116.465 L 92.183594 118.265781 L 91.515625 120.12125 L 91.023438 122.011875 L 90.714844 123.910313 L 90.605469 125.789219 L 90.699219 127.613438 L 90.992188 129.363438 L 91.488281 131.004063 L 92.175781 132.515781 L 93.046875 133.87125 L 94.089844 135.047031 L 95.289062 136.035313 L 96.617188 136.820469 L 98.0625 137.390781 L 99.597656 137.74625 L 101.203125 137.886875 L 102.851562 137.820469 L 104.519531 137.547031 L 106.191406 137.086094 L 107.839844 136.441563 L 109.453125 135.636875 L 111.007812 134.68375 L 112.492188 133.601719 L 113.894531 132.4025 L 115.203125 131.109531 L 116.40625 129.738438 L 117.503906 128.300938 L 118.480469 126.812656 L 119.339844 125.293125 L 120.074219 123.750156 L 120.683594 122.199375 L 121.167969 120.6525 L 121.523438 119.12125 L 121.753906 117.613438 L 121.863281 116.140781 L 121.84375 114.707188 L 121.703125 113.328281 L 121.445312 112.007969 L 121.066406 110.754063 L 120.574219 109.574375 L 119.96875 108.472813 L 119.253906 107.465 L 118.433594 106.550938 L 117.507812 105.742344 L 116.488281 105.043125 L 115.375 104.457188 L 114.175781 104.000156 L 112.890625 103.672031 L 111.535156 103.480625 L 110.113281 103.437656 L 108.636719 103.539219 L 107.113281 103.800938 L 105.554688 104.222813 L 103.976562 104.80875 L 102.390625 105.55875 L 100.816406 106.476719 L 99.269531 107.55875 L 97.765625 108.804844 L 96.332031 110.203281 L 94.980469 111.750156 L 93.738281 113.429844 L 92.621094 115.222813 L 91.652344 117.117344 L 90.851562 119.086094 L 90.230469 121.105625 L 89.808594 123.148594 L 89.59375 125.18375 L 89.59375 127.179844 L 89.8125 129.101719 L 90.253906 130.925938 L 90.90625 132.617344 L 91.761719 134.148594 L 92.8125 135.500156 L 94.035156 136.648594 L 95.414062 137.578281 L 96.921875 138.281406 L 98.539062 138.754063 L 100.234375 138.992344 L 101.988281 138.99625 L 103.773438 138.785313 L 105.566406 138.359531 L 107.347656 137.734531 L 109.085938 136.93375 L 110.773438 135.968906 L 112.390625 134.855625 L 113.917969 133.617344 L 115.351562 132.273594 L 116.675781 130.836094 L 117.886719 129.328281 L 118.972656 127.765781 L 119.933594 126.160313 L 120.761719 124.531406 L 121.460938 122.890781 L 122.027344 121.250156 L 122.460938 119.62125 L 122.757812 118.015781 L 122.929688 116.441563 L 122.964844 114.906406 L 122.875 113.425938 L 122.660156 112.000156 L 122.320312 110.644688 L 121.859375 109.359531 L 121.277344 108.156406 L 120.582031 107.043125 L 119.773438 106.0275 L 118.855469 105.113438 L 117.832031 104.30875 L 116.707031 103.62125 L 115.488281 103.062656 L 114.175781 102.632969 L 112.785156 102.347813 L 111.316406 102.207188 L 109.78125 102.222813 L 108.1875 102.398594 L 106.550781 102.738438 L 104.878906 103.254063 L 103.191406 103.945469 L 101.5 104.812656 L 99.828125 105.859531 L 98.1875 107.086094 L 96.605469 108.480625 L 95.097656 110.043125 L 93.691406 111.757969 L 92.40625 113.609531 L 91.269531 115.586094 L 90.296875 117.656406 L 89.511719 119.804844 L 88.929688 121.992344 L 88.566406 124.195469 L 88.433594 126.375156 L 88.535156 128.49625 L 88.878906 130.5275 L 89.457031 132.43375 L 90.265625 134.18375 L 91.289062 135.750156 L 92.511719 137.105625 L 93.914062 138.230625 L 95.472656 139.113438 L 97.15625 139.74625 L 98.945312 140.125156 L 100.804688 140.254063 L 102.710938 140.132969 L 104.636719 139.781406 L 106.554688 139.211094 L 108.445312 138.43375 L 110.28125 137.476719 L 112.046875 136.355625 L 113.726562 135.09 L 115.308594 133.703281 L 116.777344 132.215 L 118.125 130.640781 L 119.34375 129.004063 L 120.433594 127.316563 L 121.382812 125.597813 L 122.195312 123.859531 L 122.867188 122.117344 L 123.398438 120.386875 L 123.789062 118.672031 L 124.042969 116.988438 L 124.160156 115.343906 L 124.140625 113.74625 L 123.988281 112.207188 L 123.707031 110.734531 L 123.296875 109.332188 L 122.761719 108.007969 L 122.101562 106.773594 L 121.324219 105.632969 L 120.429688 104.597813 L 119.421875 103.668125 L 118.304688 102.859531 L 117.082031 102.172031 L 115.761719 101.62125 L 114.347656 101.207188 L 112.847656 100.945469 L 111.269531 100.84 L 109.617188 100.898594 L 107.910156 101.129063 L 106.15625 101.539219 L 104.367188 102.132969 L 102.5625 102.914219 L 100.757812 103.886875 L 98.972656 105.050938 L 97.226562 106.406406 L 95.546875 107.945469 L 93.953125 109.664219 L 92.472656 111.543125 L 91.125 113.574375 L 89.945312 115.726719 L 88.945312 117.984531 L 88.15625 120.316563 L 87.59375 122.687656 L 87.269531 125.062656 L 87.203125 127.406406 L 87.390625 129.675938 L 87.839844 131.836094 L 88.546875 133.847813 L 89.496094 135.675938 L 90.679688 137.297031 L 92.070312 138.675938 L 93.644531 139.800938 L 95.378906 140.660313 L 97.242188 141.238438 L 99.203125 141.543125 L 101.230469 141.574375 L 103.292969 141.347813 L 105.363281 140.87125 L 107.417969 140.164219 L 109.425781 139.250156 L 111.367188 138.148594 L 113.226562 136.879063 L 114.980469 135.468906 L 116.625 133.937656 L 118.140625 132.30875 L 119.527344 130.601719 L 120.773438 128.832188 L 121.875 127.023594 L 122.832031 125.187656 L 123.640625 123.34 L 124.300781 121.49625 L 124.8125 119.668125 L 125.179688 117.863438 L 125.402344 116.097813 L 125.480469 114.37125 L 125.421875 112.703281 L 125.222656 111.097813 L 124.890625 109.562656 L 124.425781 108.101719 L 123.828125 106.726719 L 123.105469 105.445469 L 122.261719 104.265781 L 121.292969 103.191563 L 120.207031 102.230625 L 119.007812 101.394688 L 117.699219 100.687656 L 116.285156 100.12125 L 114.773438 99.703281 L 113.171875 99.445469 L 111.484375 99.347813 L 109.722656 99.425938 L 107.898438 99.687656 L 106.019531 100.140781 L 104.109375 100.785313 L 102.175781 101.636875 L 100.246094 102.691563 L 98.332031 103.953281 L 96.464844 105.422031 L 94.664062 107.09 L 92.957031 108.949375 L 91.371094 110.988438 L 89.9375 113.187656 L 88.679688 115.523594 L 87.621094 117.972813 L 86.792969 120.49625 L 86.210938 123.066563 L 85.894531 125.636875 L 85.855469 128.168125 L 86.101562 130.613438 L 86.628906 132.93375 L 87.4375 135.086094 L 88.507812 137.035313 L 89.832031 138.74625 L 91.375 140.191563 L 93.117188 141.355625 L 95.023438 142.218906 L 97.0625 142.781406 L 99.199219 143.043125 L 101.402344 143.011875 L 103.632812 142.699375 L 105.859375 142.12125 L 108.0625 141.300938 L 110.207031 140.265781 L 112.269531 139.031406 L 114.238281 137.629063 L 116.09375 136.082188 L 117.820312 134.414219 L 119.410156 132.648594 L 120.851562 130.80875 L 122.144531 128.914219 L 123.285156 126.980625 L 124.269531 125.023594 L 125.097656 123.062656 L 125.769531 121.109531 L 126.285156 119.175938 L 126.648438 117.273594 L 126.863281 115.410313 L 126.925781 113.597813 L 126.847656 111.843906 L 126.625 110.156406 L 126.261719 108.543125 L 125.761719 107.007969 L 125.125 105.562656 L 124.359375 104.215 L 123.464844 102.968906 L 122.441406 101.836094 L 121.296875 100.820469 L 120.03125 99.929844 L 118.652344 99.179844 L 117.160156 98.570469 L 115.5625 98.113438 L 113.867188 97.824375 L 112.078125 97.703281 L 110.210938 97.769688 L 108.269531 98.023594 L 106.269531 98.480625 L 104.230469 99.144688 L 102.160156 100.0275 L 100.089844 101.125156 L 98.03125 102.453281 L 96.011719 104.000156 L 94.0625 105.765781 L 92.210938 107.74625 L 90.480469 109.922031 L 88.910156 112.2775 L 87.527344 114.793125 L 86.359375 117.43375 L 85.433594 120.164219 L 84.78125 122.949375 L 84.414062 125.742344 L 84.351562 128.49625 L 84.601562 131.164219 L 85.160156 133.695469 L 86.027344 136.043125 L 87.1875 138.168125 L 88.617188 140.031406 L 90.292969 141.605625 L 92.183594 142.867344 L 94.257812 143.800938 L 96.46875 144.398594 L 98.789062 144.672031 L 101.171875 144.62125 L 103.582031 144.265781 L 105.992188 143.625156 L 108.363281 142.722813 L 110.667969 141.586094 L 112.886719 140.24625 L 114.996094 138.722813 L 116.976562 137.054844 L 118.820312 135.257969 L 120.511719 133.363438 L 122.050781 131.394688 L 123.425781 129.367344 L 124.636719 127.304844 L 125.679688 125.226719 L 126.558594 123.140781 L 127.273438 121.070469 L 127.824219 119.019688 L 128.214844 117.004063 L 128.449219 115.031406 L 128.53125 113.113438 L 128.457031 111.257969 L 128.238281 109.468906 L 127.875 107.754063 L 127.367188 106.125156 L 126.722656 104.586094 L 125.9375 103.144688 L 125.019531 101.80875 L 123.96875 100.586094 L 122.789062 99.484531 L 121.484375 98.507969 L 120.054688 97.672031 L 118.507812 96.980625 L 116.84375 96.449375 L 115.074219 96.082188 L 113.203125 95.894688 L 111.238281 95.894688 L 109.191406 96.093906 L 107.074219 96.504063 L 104.902344 97.132969 L 102.691406 97.988438 L 100.464844 99.082188 L 98.242188 100.414219 L 96.046875 101.992344 L 93.914062 103.80875 L 91.867188 105.863438 L 89.945312 108.140781 L 88.175781 110.629063 L 86.601562 113.297031 L 85.25 116.12125 L 84.152344 119.062656 L 83.34375 122.082188 L 82.84375 125.125156 L 82.675781 128.148594 L 82.84375 131.09 L 83.359375 133.898594 L 84.214844 136.519688 L 85.394531 138.906406 L 86.882812 141.015781 L 88.648438 142.80875 L 90.660156 144.261875 L 92.875 145.355625 L 95.253906 146.082188 L 97.753906 146.441563 L 100.332031 146.449375 L 102.945312 146.117344 L 105.558594 145.472813 L 108.132812 144.539219 L 110.640625 143.347813 L 113.050781 141.929844 L 115.34375 140.316563 L 117.5 138.543125 L 119.507812 136.632969 L 121.351562 134.613438 L 123.03125 132.515781 L 124.53125 130.359531 L 125.859375 128.164219 L 127.011719 125.949375 L 127.984375 123.734531 L 128.785156 121.531406 L 129.414062 119.347813 L 129.875 117.203281 L 130.171875 115.101719 L 130.308594 113.05875 L 130.285156 111.074375 L 130.109375 109.160313 L 129.78125 107.324375 L 129.308594 105.570469 L 128.6875 103.906406 L 127.921875 102.343906 L 127.019531 100.882969 L 125.976562 99.535313 L 124.800781 98.304844 L 123.488281 97.203281 L 122.046875 96.238438 L 120.472656 95.418125 L 118.78125 94.757969 L 116.964844 94.261875 L 115.039062 93.945469 L 113.003906 93.816563 L 110.871094 93.894688 L 108.652344 94.18375 L 106.359375 94.703281 L 104.011719 95.457188 L 101.625 96.461094 L 99.222656 97.722813 L 96.828125 99.250156 L 94.472656 101.039219 L 92.191406 103.09 L 90.011719 105.398594 L 87.980469 107.953281 L 86.125 110.730625 L 84.492188 113.699375 L 83.117188 116.832188 L 82.035156 120.082188 L 81.28125 123.398594 L 80.875 126.726719 L 80.839844 130.007969 L 81.1875 133.179844 L 81.914062 136.175938 L 83.011719 138.941563 L 84.460938 141.422031 L 86.238281 143.570469 L 88.304688 145.355625 L 90.621094 146.750156 L 93.136719 147.738438 L 95.808594 148.324375 L 98.585938 148.507969 L 101.417969 148.30875 L 104.269531 147.754063 L 107.089844 146.87125 L 109.84375 145.691563 L 112.503906 144.254063 L 115.046875 142.593906 L 117.441406 140.74625 L 119.679688 138.74625 L 121.742188 136.62125 L 123.628906 134.4025 L 125.328125 132.113438 L 126.835938 129.781406 L 128.160156 127.425938 L 129.292969 125.062656 L 130.238281 122.711094 L 131.007812 120.379063 L 131.59375 118.082188 L 132.007812 115.828281 L 132.253906 113.629063 L 132.335938 111.492344 L 132.253906 109.425938 L 132.015625 107.43375 L 131.621094 105.523594 L 131.078125 103.703281 L 130.386719 101.976719 L 129.546875 100.355625 L 128.5625 98.84 L 127.4375 97.437656 L 126.171875 96.160313 L 124.765625 95.015781 L 123.222656 94.011875 L 121.546875 93.160313 L 119.738281 92.468906 L 117.800781 91.949375 L 115.742188 91.617344 L 113.566406 91.488438 L 111.28125 91.570469 L 108.902344 91.879063 L 106.441406 92.429844 L 103.914062 93.234531 L 101.335938 94.304844 L 98.738281 95.656406 L 96.148438 97.297031 L 93.589844 99.226719 L 91.105469 101.445469 L 88.730469 103.953281 L 86.503906 106.730625 L 84.476562 109.757969 L 82.691406 113.007969 L 81.1875 116.441563 L 80.003906 120.007969 L 79.1875 123.6525 L 78.757812 127.312656 L 78.742188 130.922031 L 79.152344 134.4025 L 79.984375 137.68375 L 81.230469 140.703281 L 82.867188 143.398594 L 84.859375 145.718906 L 87.171875 147.625156 L 89.75 149.09 L 92.546875 150.101719 L 95.5 150.660313 L 98.554688 150.7775 L 101.664062 150.476719 L 104.773438 149.789219 L 107.839844 148.74625 L 110.824219 147.394688 L 113.691406 145.769688 L 116.414062 143.918125 L 118.972656 141.87125 L 121.355469 139.672031 L 123.542969 137.351719 L 125.535156 134.945469 L 127.320312 132.476719 L 128.90625 129.972813 L 130.289062 127.449375 L 131.46875 124.929844 L 132.457031 122.425938 L 133.253906 119.953281 L 133.863281 117.519688 L 134.292969 115.136875 L 134.546875 112.816563 L 134.632812 110.55875 L 134.554688 108.375156 L 134.3125 106.273594 L 133.914062 104.254063 L 133.359375 102.324375 L 132.652344 100.492344 L 131.800781 98.765781 L 130.796875 97.144688 L 129.644531 95.636875 L 128.347656 94.257969 L 126.90625 93.004063 L 125.316406 91.894688 L 123.589844 90.93375 L 121.71875 90.136875 L 119.707031 89.515781 L 117.5625 89.078281 L 115.289062 88.843906 L 112.890625 88.824375 L 110.382812 89.043125 L 107.769531 89.507969 L 105.074219 90.238438 L 102.308594 91.254063 L 99.5 92.566563 L 96.675781 94.187656 L 93.863281 96.125156 L 91.109375 98.386875 L 88.445312 100.972813 L 85.921875 103.87125 L 83.585938 107.066563 L 81.492188 110.5275 L 79.683594 114.222813 L 78.21875 118.101719 L 77.136719 122.097813 L 76.476562 126.1525 L 76.273438 130.179844 L 76.539062 134.101719 L 77.285156 137.832188 L 78.503906 141.297031 L 80.167969 144.418125 L 82.253906 147.132969 L 84.707031 149.390781 L 87.476562 151.156406 L 90.5 152.414219 L 93.71875 153.160313 L 97.066406 153.406406 L 100.480469 153.179844 L 103.902344 152.511875 L 107.28125 151.445469 L 110.570312 150.0275 L 113.738281 148.304844 L 116.746094 146.328281 L 119.574219 144.136875 L 122.207031 141.7775 L 124.625 139.289219 L 126.828125 136.703281 L 128.8125 134.054844 L 130.574219 131.367344 L 132.121094 128.668125 L 133.449219 125.968906 L 134.570312 123.289219 L 135.492188 120.644688 L 136.214844 118.043125 L 136.746094 115.49625 L 137.097656 113.011875 L 137.273438 110.597813 L 137.277344 108.254063 L 137.117188 105.992344 L 136.792969 103.816563 L 136.308594 101.730625 L 135.671875 99.738438 L 134.882812 97.847813 L 133.941406 96.05875 L 132.847656 94.382969 L 131.601562 92.824375 L 130.207031 91.390781 L 128.664062 90.093906 L 126.96875 88.937656 L 125.121094 87.93375 L 123.125 87.093906 L 120.976562 86.437656 L 118.6875 85.972813 L 116.25 85.715 L 113.679688 85.687656 L 110.980469 85.9025 L 108.164062 86.382969 L 105.25 87.148594 L 102.25 88.218906 L 99.191406 89.609531 L 96.101562 91.34 L 93.019531 93.422031 L 89.984375 95.867344 L 87.042969 98.672031 L 84.242188 101.836094 L 81.640625 105.34 L 79.296875 109.156406 L 77.273438 113.242344 L 75.625 117.543125 L 74.40625 121.99625 L 73.667969 126.515781 L 73.4375 131.011875 L 73.746094 135.394688 L 74.597656 139.55875 L 75.984375 143.418125 L 77.878906 146.875156 L 80.246094 149.867344 L 83.023438 152.332188 L 86.148438 154.230625 L 89.554688 155.547031 L 93.160156 156.281406 L 96.894531 156.457188 L 100.6875 156.101719 L 104.46875 155.261875 L 108.1875 153.988438 L 111.789062 152.34 L 115.238281 150.37125 L 118.5 148.136875 L 121.550781 145.691563 L 124.378906 143.078281 L 126.964844 140.34 L 129.316406 137.519688 L 131.421875 134.644688 L 133.289062 131.742344 L 134.917969 128.84 L 136.320312 125.949375 L 137.503906 123.09 L 138.476562 120.273594 L 139.242188 117.511875 L 139.816406 114.812656 L 140.199219 112.179844 L 140.40625 109.625156 L 140.4375 107.148594 L 140.300781 104.754063 L 140.003906 102.445469 L 139.546875 100.230625 L 138.933594 98.109531 L 138.164062 96.086094 L 137.246094 94.164219 L 136.171875 92.351719 L 134.945312 90.6525 L 133.570312 89.074375 L 132.035156 87.62125 L 130.347656 86.304844 L 128.5 85.132969 L 126.492188 84.12125 L 124.324219 83.281406 L 121.996094 82.625156 L 119.507812 82.168125 L 116.863281 81.93375 L 114.066406 81.941563 L 111.125 82.207188 L 108.050781 82.761875 L 104.859375 83.625156 L 101.570312 84.820469 L 98.207031 86.37125 L 94.804688 88.300938 L 91.402344 90.625156 L 88.042969 93.359531 L 84.785156 96.504063 L 81.683594 100.05875 L 78.804688 104.004063 L 76.222656 108.312656 L 74.003906 112.929844 L 72.21875 117.797031 L 70.933594 122.828281 L 70.199219 127.93375 L 70.0625 133.000156 L 70.546875 137.910313 L 71.65625 142.550938 L 73.378906 146.804844 L 75.675781 150.578281 L 78.496094 153.781406 L 81.765625 156.355625 L 85.40625 158.269688 L 89.332031 159.504063 L 93.449219 160.074375 L 97.671875 160.015781 L 101.921875 159.375156 L 106.121094 158.207188 L 110.214844 156.586094 L 114.148438 154.574375 L 117.882812 152.242344 L 121.390625 149.6525 L 124.644531 146.859531 L 127.640625 143.922031 L 130.363281 140.882969 L 132.820312 137.7775 L 135.007812 134.640781 L 136.9375 131.500156 L 138.617188 128.375156 L 140.054688 125.281406 L 141.265625 122.238438 L 142.253906 119.250156 L 143.035156 116.328281 L 143.617188 113.480625 L 144.011719 110.711094 L 144.226562 108.023594 L 144.269531 105.418125 L 144.148438 102.898594 L 143.867188 100.472813 L 143.425781 98.136875 L 142.835938 95.894688 L 142.09375 93.74625 L 141.199219 91.699375 L 140.15625 89.757969 L 138.964844 87.922031 L 137.617188 86.195469 L 136.113281 84.59 L 134.449219 83.113438 L 132.625 81.765781 L 130.632812 80.570469 L 128.472656 79.5275 L 126.140625 78.660313 L 123.632812 77.980625 L 120.945312 77.504063 L 118.085938 77.261875 L 115.050781 77.265781 L 111.847656 77.547031 L 108.488281 78.132969 L 104.984375 79.050938 L 101.359375 80.332188 L 97.636719 82.007969 L 93.847656 84.109531 L 90.042969 86.6525 L 86.269531 89.668125 L 82.589844 93.156406 L 79.070312 97.129063 L 75.792969 101.562656 L 72.84375 106.429844 L 70.304688 111.679844 L 68.261719 117.230625 L 66.796875 122.992344 L 65.980469 128.847813 L 65.863281 134.660313 L 66.476562 140.289219 L 67.824219 145.586094 L 69.890625 150.418125 L 72.625 154.660313 L 75.960938 158.215 L 79.804688 161.011875 L 84.054688 163.015781 L 88.601562 164.222813 L 93.339844 164.660313 L 98.164062 164.375156 L 102.976562 163.43375 L 107.699219 161.918125 L 112.265625 159.910313 L 116.621094 157.500156 L 120.722656 154.761875 L 124.546875 151.773594 L 128.074219 148.597813 L 131.296875 145.297031 L 134.214844 141.918125 L 136.832031 138.49625 L 139.152344 135.070469 L 141.195312 131.660313 L 142.964844 128.289219 L 144.484375 124.972813 L 145.761719 121.722813 L 146.816406 118.547031 L 147.65625 115.449375 L 148.296875 112.43375 L 148.75 109.507969 L 149.027344 106.672031 L 149.136719 103.922031 L 149.085938 101.265781 L 148.882812 98.699375 L 148.527344 96.222813 L 148.03125 93.836094 L 147.390625 91.543125 L 146.605469 89.343906 L 145.683594 87.238438 L 144.613281 85.230625 L 143.402344 83.324375 L 142.039062 81.519688 L 140.523438 79.824375 L 138.847656 78.242344 L 137.007812 76.785313 L 135 75.461094 L 132.8125 74.2775 L 130.441406 73.254063 L 127.878906 72.4025 L 125.125 71.74625 L 122.167969 71.300938 L 119.011719 71.097813 L 115.652344 71.156406 L 112.09375 71.515781 L 108.347656 72.203281 L 104.425781 73.261875 L 100.34375 74.730625 L 96.136719 76.644688 L 91.84375 79.043125 L 87.507812 81.968906 L 83.195312 85.441563 L 78.976562 89.488438 L 74.941406 94.113438 L 71.1875 99.300938 L 67.816406 105.019688 L 64.945312 111.199375 L 62.675781 117.754063 L 61.117188 124.550938 L 60.351562 131.441563 L 60.445312 138.254063 L 61.429688 144.800938 L 63.304688 150.890781 L 66.035156 156.359531 L 69.550781 161.050938 L 73.742188 164.855625 L 78.492188 167.711094 L 83.660156 169.582188 L 89.109375 170.500156 L 94.703125 170.515781 L 100.316406 169.707188 L 105.84375 168.179844 L 111.195312 166.043125 L 116.300781 163.410313 L 121.113281 160.382969 L 125.597656 157.054844 L 129.730469 153.515781 L 133.507812 149.84 L 136.925781 146.078281 L 139.996094 142.285313 L 142.726562 138.500156 L 145.140625 134.74625 L 147.25 131.050938 L 149.078125 127.425938 L 150.640625 123.882969 L 151.964844 120.43375 L 153.058594 117.078281 L 153.945312 113.820469 L 154.640625 110.660313 L 155.160156 107.601719 L 155.511719 104.636875 L 155.710938 101.773594 L 155.765625 99.000156 L 155.679688 96.316563 L 155.464844 93.726719 L 155.125 91.222813 L 154.660156 88.804844 L 154.074219 86.472813 L 153.367188 84.222813 L 152.539062 82.05875 L 151.585938 79.976719 L 150.503906 77.980625 L 149.292969 76.066563 L 147.941406 74.242344 L 146.445312 72.507969 L 144.796875 70.87125 L 142.988281 69.34 L 141.007812 67.914219 L 138.851562 66.609531 L 136.5 65.43375 L 133.949219 64.406406 L 131.183594 63.543125 L 128.199219 62.863438 L 124.980469 62.394688 L 121.519531 62.160313 L 117.816406 62.195469 L 113.863281 62.543125 L 109.667969 63.238438 L 105.238281 64.332188 L 100.589844 65.879063 L 95.746094 67.93375 L 90.753906 70.547031 L 85.660156 73.781406 L 80.535156 77.68375 L 75.46875 82.297031 L 70.570312 87.644688 L 65.957031 93.730625 L 61.773438 100.519688 L 58.167969 107.953281 L 55.292969 115.910313 L 53.296875 124.234531 L 52.304688 132.726719 L 52.410156 141.148594 L 53.664062 149.238438 L 56.0625 156.734531 L 59.558594 163.398594 L 64.039062 169.023594 L 69.359375 173.468906 L 75.34375 176.6525 L 81.792969 178.570469 L 88.519531 179.269688 L 95.34375 178.851719 L 102.109375 177.453281 L 108.691406 175.226719 L 114.980469 172.328281 L 120.910156 168.914219 L 126.433594 165.117344 L 131.519531 161.054844 L 136.160156 156.836094 L 140.359375 152.531406 L 144.132812 148.207188 L 147.5 143.914219 L 150.480469 139.687656 L 153.109375 135.550938 L 155.40625 131.515781 L 157.40625 127.601719 L 159.132812 123.804844 L 160.613281 120.136875 L 161.871094 116.593906 L 162.929688 113.168125 L 163.808594 109.867344 L 164.53125 106.679844 L 165.554688 100.632969 L 166.113281 94.992344 L 166.289062 89.722813 L 166.132812 84.789219 L 165.6875 80.164219 L 164.960938 75.816563 L 163.953125 71.722813 L 162.652344 67.863438 L 161.027344 64.230625 L 160.078125 62.492344 L 159.03125 60.80875 L 157.875 59.179844 L 156.601562 57.605625 L 155.203125 56.086094 L 153.664062 54.629063 L 151.980469 53.230625 L 150.128906 51.9025 L 148.101562 50.644688 L 145.878906 49.476719 L 143.449219 48.398594 L 140.789062 47.429844 L 137.882812 46.586094 L 134.710938 45.886875 L 131.25 45.363438 L 127.488281 45.043125 L 123.402344 44.968906 L 118.976562 45.179844 L 114.203125 45.730625 L 109.070312 46.691563 L 103.585938 48.125156 L 97.757812 50.125156 L 91.617188 52.773594 L 85.203125 56.175938 L 78.59375 60.429844 L 71.882812 65.632969 L 65.203125 71.875156 L 58.71875 79.211094 L 52.632812 87.668125 L 47.175781 97.211094 L 42.601562 107.730625 L 39.175781 119.031406 L 37.136719 130.824375 L 36.6875 142.738438 L 37.953125 154.332188 L 40.96875 165.1525 L 45.664062 174.757969 L 51.871094 182.7775 L 59.332031 188.961094 L 67.734375 193.18375 L 76.75 195.457188 L 86.058594 195.914219 L 95.371094 194.769688 L 104.457031 192.289219 L 113.136719 188.761875 L 121.289062 184.457188 L 128.839844 179.613438 L 135.753906 174.445469 L 142.019531 169.109531 L 147.660156 163.742344 L 152.703125 158.429844 L 157.191406 153.238438 L 161.164062 148.211094 L 164.675781 143.375156 L 167.769531 138.738438 L 170.492188 134.30875 L 172.886719 130.086094 L 175 126.062656 L 178.527344 118.586094 L 181.339844 111.812656 L 184.710938 102.812656 L 187.582031 95.039219 L 189.449219 90.468906 L 191.402344 86.363438 L 193.535156 82.707188 L 194.699219 81.047031 L 195.945312 79.504063 L 197.277344 78.078281 L 198.710938 76.773594 L 200.257812 75.597813 L 201.929688 74.554844 L 203.734375 73.6525 L 205.6875 72.906406 L 207.800781 72.320469 L 210.085938 71.910313 L 212.554688 71.691563 L 215.222656 71.687656 L 218.101562 71.910313 L 221.199219 72.390781 L 224.53125 73.148594 L 228.101562 74.215 L 231.917969 75.625156 L 235.980469 77.406406 L 240.285156 79.597813 L 244.824219 82.234531 L 249.582031 85.351719 L 254.523438 88.984531 L 259.613281 93.156406 L 264.792969 97.890781 L 269.996094 103.187656 L 275.125 109.039219 L 280.082031 115.4025 L 284.734375 122.215 L 288.9375 129.379063 L 292.546875 136.757969 L 295.398438 144.172031 L 297.34375 151.425938 L 298.246094 158.285313 L 298.003906 164.515781 L 296.558594 169.890781 L 293.902344 174.218906 L 290.078125 177.355625 L 285.203125 179.226719 L 279.425781 179.828281 L 272.945312 179.230625 L 265.96875 177.562656 L 258.707031 174.992344 L 251.371094 171.711094 L 244.125 167.910313 L 237.121094 163.773594 L 230.464844 159.449375 L 224.238281 155.062656 L 218.480469 150.711094 L 213.21875 146.449375 L 208.457031 142.328281 L 204.179688 138.363438 L 200.371094 134.566563 L 196.996094 130.929844 L 194.023438 127.449375 L 191.421875 124.113438 L 189.152344 120.906406 L 187.179688 117.820469 L 185.480469 114.84 L 184.015625 111.953281 L 182.757812 109.1525 L 181.6875 106.429844 L 180 101.199375 L 178.804688 96.218906 L 177.972656 91.472813 L 177.414062 86.945469 L 176.941406 80.550938 L 176.765625 74.613438 L 176.792969 69.12125 L 177.078125 62.465 L 177.457031 57.949375 L 177.996094 53.824375 L 178.726562 50.078281 L 179.347656 47.785313 L 180.101562 45.656406 L 181.015625 43.699375 L 182.132812 41.914219 L 183.488281 40.312656 L 185.144531 38.914219 L 187.164062 37.742344 L 188.332031 37.254063 L 189.628906 36.836094 L 191.058594 36.49625 L 192.640625 36.24625 L 194.390625 36.09 L 196.328125 36.047031 L 198.464844 36.125156 L 200.828125 36.347813 L 203.433594 36.730625 L 206.3125 37.300938 L 209.488281 38.086094 L 212.980469 39.117344 L 216.824219 40.437656 L 221.046875 42.086094 L 225.664062 44.125156 L 230.710938 46.609531 L 236.203125 49.609531 L 242.148438 53.203281 L 248.554688 57.476719 L 255.410156 62.511875 L 262.683594 68.406406 L 270.316406 75.24625 L 278.226562 83.105625 L 286.277344 92.031406 L 294.296875 102.031406 L 302.0625 113.062656 L 309.292969 124.992344 L 315.65625 137.59 L 320.792969 150.515781 L 324.316406 163.312656 L 325.882812 175.429844 L 325.207031 186.265781 L 322.121094 195.226719 L 316.613281 201.828281 L 308.855469 205.757969 L 299.171875 206.93375 L 288.03125 205.523594 L 275.953125 201.898594 L 263.464844 196.566563 L 251.039062 190.082188 L 239.050781 182.968906 L 227.769531 175.668125 L 217.363281 168.507969 L 207.910156 161.711094 L 199.429688 155.398594 L 185.222656 144.390781 L 174.226562 135.379063 L 165.789062 127.945469 L 159.277344 121.648594 L 154.164062 116.1525 L 150.003906 111.226719 L 140.097656 98.828281 L 136.910156 95.418125 L 135.246094 93.863438 L 133.515625 92.414219 L 131.707031 91.086094 L 129.808594 89.879063 L 127.8125 88.80875 L 125.710938 87.886875 L 123.5 87.129063 L 121.167969 86.543125 L 118.71875 86.1525 L 116.152344 85.965 L 113.46875 86.007969 L 110.679688 86.297031 L 107.789062 86.847813 L 104.8125 87.687656 L 101.773438 88.832188 L 98.6875 90.297031 L 95.589844 92.101719 L 92.511719 94.257969 L 89.496094 96.773594 L 86.585938 99.644688 L 83.839844 102.867344 L 81.304688 106.418125 L 79.042969 110.269688 L 77.113281 114.375156 L 75.570312 118.68375 L 74.46875 123.117344 L 73.847656 127.593906 L 73.746094 132.031406 L 74.175781 136.328281 L 75.144531 140.390781 L 76.636719 144.12125 L 78.625 147.445469 L 81.066406 150.289219 L 83.90625 152.601719 L 87.074219 154.347813 L 90.496094 155.519688 L 94.105469 156.12125 L 97.828125 156.172031 L 101.589844 155.707188 L 105.328125 154.773594 L 108.992188 153.422031 L 112.535156 151.711094 L 115.917969 149.691563 L 119.109375 147.425938 L 122.089844 144.953281 L 124.84375 142.328281 L 127.359375 139.59 L 129.636719 136.769688 L 131.675781 133.906406 L 133.476562 131.019688 L 135.046875 128.132969 L 136.390625 125.261875 L 137.515625 122.429844 L 138.429688 119.636875 L 139.148438 116.9025 L 139.671875 114.230625 L 140.007812 111.629063 L 140.167969 109.101719 L 140.15625 106.656406 L 139.976562 104.293125 L 139.636719 102.015781 L 139.140625 99.832188 L 138.488281 97.74625 L 137.679688 95.757969 L 136.71875 93.87125 L 135.609375 92.097813 L 134.34375 90.437656 L 132.925781 88.898594 L 131.351562 87.492344 L 129.625 86.222813 L 127.734375 85.105625 L 125.691406 84.148594 L 123.484375 83.363438 L 121.117188 82.773594 L 118.59375 82.386875 L 115.917969 82.226719 L 113.09375 82.312656 L 110.125 82.668125 L 107.035156 83.312656 L 103.828125 84.273594 L 100.539062 85.570469 L 97.183594 87.230625 L 93.804688 89.269688 L 90.4375 91.707188 L 87.132812 94.547031 L 83.945312 97.800938 L 80.933594 101.449375 L 78.167969 105.480625 L 75.714844 109.851719 L 73.648438 114.511875 L 72.027344 119.394688 L 70.921875 124.410313 L 70.378906 129.465 L 70.433594 134.445469 L 71.101562 139.238438 L 72.390625 143.726719 L 74.277344 147.800938 L 76.714844 151.37125 L 79.648438 154.363438 L 83.007812 156.715 L 86.707031 158.410313 L 90.660156 159.43375 L 94.777344 159.812656 L 98.980469 159.578281 L 103.183594 158.785313 L 107.320312 157.492344 L 111.335938 155.765781 L 115.183594 153.672031 L 118.824219 151.2775 L 122.230469 148.644688 L 125.386719 145.828281 L 128.28125 142.879063 L 130.90625 139.836094 L 133.265625 136.742344 L 135.363281 133.62125 L 137.207031 130.500156 L 138.800781 127.4025 L 140.160156 124.34 L 141.292969 121.328281 L 142.214844 118.375156 L 142.925781 115.488438 L 143.445312 112.675938 L 143.78125 109.941563 L 143.9375 107.293125 L 143.921875 104.726719 L 143.746094 102.24625 L 143.40625 99.859531 L 142.917969 97.562656 L 142.273438 95.359531 L 141.476562 93.257969 L 140.53125 91.254063 L 139.433594 89.355625 L 138.183594 87.566563 L 136.78125 85.890781 L 135.222656 84.34 L 133.503906 82.918125 L 131.621094 81.636875 L 129.570312 80.504063 L 127.347656 79.535313 L 124.957031 78.74625 L 122.386719 78.1525 L 119.644531 77.773594 L 116.730469 77.632969 L 113.644531 77.750156 L 110.398438 78.156406 L 107 78.875156 L 103.46875 79.937656 L 99.824219 81.375156 L 96.101562 83.215 L 92.335938 85.480625 L 88.570312 88.203281 L 84.867188 91.390781 L 81.28125 95.054844 L 77.890625 99.18375 L 74.773438 103.761875 L 72.015625 108.74625 L 69.703125 114.074375 L 67.917969 119.668125 L 66.730469 125.418125 L 66.207031 131.207188 L 66.386719 136.894688 L 67.296875 142.34 L 68.929688 147.406406 L 71.25 151.953281 L 74.203125 155.879063 L 77.71875 159.097813 L 81.691406 161.547031 L 86.027344 163.215 L 90.617188 164.097813 L 95.347656 164.238438 L 100.125 163.691563 L 104.863281 162.5275 L 109.488281 160.828281 L 113.929688 158.675938 L 118.148438 156.148594 L 122.109375 153.332188 L 125.785156 150.293125 L 129.164062 147.09 L 132.238281 143.781406 L 135.015625 140.406406 L 137.492188 137.004063 L 139.683594 133.605625 L 141.601562 130.230625 L 143.257812 126.898594 L 144.667969 123.629063 L 145.84375 120.422031 L 146.796875 117.293125 L 147.546875 114.242344 L 148.101562 111.281406 L 148.476562 108.4025 L 148.675781 105.613438 L 148.707031 102.914219 L 148.585938 100.304844 L 148.308594 97.789219 L 147.886719 95.359531 L 147.316406 93.0275 L 146.605469 90.785313 L 145.75 88.636875 L 144.753906 86.586094 L 143.609375 84.632969 L 142.320312 82.781406 L 140.878906 81.039219 L 139.277344 79.410313 L 137.515625 77.9025 L 135.589844 76.519688 L 133.488281 75.2775 L 131.203125 74.191563 L 128.738281 73.269688 L 126.078125 72.531406 L 123.222656 72.000156 L 120.167969 71.695469 L 116.910156 71.644688 L 113.460938 71.879063 L 109.816406 72.425938 L 105.996094 73.328281 L 102.011719 74.617344 L 97.894531 76.336094 L 93.671875 78.519688 L 89.390625 81.203281 L 85.109375 84.425938 L 80.894531 88.203281 L 76.828125 92.547031 L 72.996094 97.457188 L 69.503906 102.9025 L 66.457031 108.832188 L 63.964844 115.164219 L 62.132812 121.789219 L 61.050781 128.570469 L 60.792969 135.343906 L 61.398438 141.925938 L 62.890625 148.140781 L 65.238281 153.80875 L 68.390625 158.769688 L 72.253906 162.9025 L 76.722656 166.12125 L 81.664062 168.386875 L 86.9375 169.691563 L 92.414062 170.086094 L 97.960938 169.632969 L 103.46875 168.422031 L 108.839844 166.566563 L 114 164.168125 L 118.890625 161.336094 L 123.46875 158.168125 L 127.710938 154.750156 L 131.605469 151.164219 L 135.144531 147.468906 L 138.332031 143.718906 L 141.183594 139.957188 L 143.710938 136.218906 L 145.929688 132.519688 L 147.859375 128.886875 L 149.519531 125.332188 L 150.929688 121.859531 L 152.105469 118.480625 L 153.066406 115.199375 L 153.828125 112.011875 L 154.40625 108.925938 L 154.8125 105.93375 L 155.0625 103.039219 L 155.160156 100.234531 L 155.117188 97.5275 L 154.9375 94.910313 L 154.628906 92.379063 L 154.191406 89.937656 L 153.632812 87.582188 L 152.949219 85.312656 L 152.144531 83.125156 L 151.210938 81.023594 L 150.152344 79.004063 L 148.957031 77.074375 L 147.625 75.234531 L 146.148438 73.484531 L 144.519531 71.836094 L 142.730469 70.285313 L 140.769531 68.851719 L 138.632812 67.535313 L 136.308594 66.347813 L 133.785156 65.312656 L 131.050781 64.437656 L 128.09375 63.74625 L 124.914062 63.265781 L 121.492188 63.015781 L 117.835938 63.039219 L 113.933594 63.367344 L 109.789062 64.039219 L 105.417969 65.109531 L 100.832031 66.62125 L 96.058594 68.632969 L 91.136719 71.195469 L 86.117188 74.363438 L 81.070312 78.187656 L 76.082031 82.707188 L 71.25 87.945469 L 66.699219 93.9025 L 62.566406 100.554844 L 58.996094 107.828281 L 56.136719 115.625156 L 54.132812 123.785313 L 53.101562 132.117344 L 53.136719 140.390781 L 54.296875 148.355625 L 56.582031 155.754063 L 59.9375 162.355625 L 64.269531 167.957188 L 69.433594 172.414219 L 75.257812 175.644688 L 81.5625 177.632969 L 88.152344 178.429844 L 94.855469 178.117344 L 101.519531 176.836094 L 108.011719 174.722813 L 114.234375 171.937656 L 120.109375 168.625156 L 125.59375 164.918125 L 130.648438 160.941563 L 135.273438 156.789219 L 139.460938 152.547031 L 143.226562 148.273594 L 146.589844 144.023594 L 149.570312 139.828281 L 152.199219 135.715 L 154.5 131.703281 L 156.5 127.804844 L 158.226562 124.019688 L 159.703125 120.359531 L 160.957031 116.820469 L 162.011719 113.4025 L 162.882812 110.101719 L 163.59375 106.914219 L 164.152344 103.836094 L 164.894531 97.992344 L 165.195312 92.535313 L 165.125 87.43375 L 164.722656 82.648594 L 164.015625 78.160313 L 163.007812 73.937656 L 161.679688 69.968906 L 160.007812 66.234531 L 159.03125 64.453281 L 157.953125 62.730625 L 156.757812 61.062656 L 155.445312 59.457188 L 154.003906 57.910313 L 152.417969 56.425938 L 150.679688 55.015781 L 148.773438 53.672031 L 146.6875 52.414219 L 144.402344 51.24625 L 141.90625 50.18375 L 139.179688 49.234531 L 136.203125 48.425938 L 132.960938 47.773594 L 129.429688 47.30875 L 125.601562 47.066563 L 121.453125 47.078281 L 116.972656 47.4025 L 112.152344 48.086094 L 106.988281 49.199375 L 101.492188 50.812656 L 95.675781 53.007969 L 89.582031 55.875156 L 83.257812 59.507969 L 76.78125 64.004063 L 70.265625 69.445469 L 63.84375 75.910313 L 57.691406 83.437656 L 52.007812 92.023594 L 47.023438 101.613438 L 42.984375 112.066563 L 40.128906 123.172031 L 38.679688 134.617344 L 38.796875 146.035313 L 40.574219 157.000156 L 44.011719 167.082188 L 49.011719 175.882969 L 55.390625 183.09 L 62.878906 188.49625 L 71.183594 192.031406 L 79.992188 193.730625 L 89.007812 193.74625 L 97.96875 192.293125 L 106.675781 189.625156 L 114.960938 186.011875 L 122.726562 181.699375 L 129.90625 176.914219 L 136.472656 171.84 L 142.421875 166.629063 L 147.773438 161.390781 L 152.554688 156.215 L 156.808594 151.1525 L 160.574219 146.250156 L 163.894531 141.523594 L 166.824219 136.984531 L 169.394531 132.644688 L 171.660156 128.49625 L 173.648438 124.539219 L 176.957031 117.156406 L 179.582031 110.441563 L 182.679688 101.472813 L 186.089844 91.297031 L 187.757812 86.886875 L 189.53125 82.898594 L 191.488281 79.324375 L 192.566406 77.691563 L 193.71875 76.164219 L 194.957031 74.742344 L 196.296875 73.43375 L 197.742188 72.242344 L 199.308594 71.172031 L 201.003906 70.234531 L 202.84375 69.43375 L 204.84375 68.781406 L 207.007812 68.289219 L 209.355469 67.976719 L 211.902344 67.855625 L 214.65625 67.945469 L 217.636719 68.273594 L 220.851562 68.863438 L 224.316406 69.738438 L 228.039062 70.937656 L 232.023438 72.488438 L 236.277344 74.437656 L 240.796875 76.816563 L 245.570312 79.668125 L 250.582031 83.035313 L 255.800781 86.953281 L 261.183594 91.453281 L 266.667969 96.562656 L 272.175781 102.281406 L 277.609375 108.601719 L 282.847656 115.480625 L 287.753906 122.847813 L 292.164062 130.582188 L 295.90625 138.535313 L 298.804688 146.504063 L 300.695312 154.257969 L 301.425781 161.535313 L 300.886719 168.070469 L 299.027344 173.613438 L 295.84375 177.953281 L 291.410156 180.953281 L 285.867188 182.543125 L 279.398438 182.74625 L 272.234375 181.672031 L 264.609375 179.480625 L 256.765625 176.379063 L 248.917969 172.593906 L 241.242188 168.336094 L 233.894531 163.800938 L 226.96875 159.144688 L 220.535156 154.49625 L 214.636719 149.93375 L 209.28125 145.523594 L 204.457031 141.289219 L 200.152344 137.250156 L 196.328125 133.4025 L 192.953125 129.734531 L 189.984375 126.238438 L 187.390625 122.894688 L 185.125 119.687656 L 183.152344 116.601719 L 181.4375 113.62125 L 179.953125 110.738438 L 178.664062 107.937656 L 176.566406 102.566563 L 174.96875 97.457188 L 173.71875 92.578281 L 172.253906 85.656406 L 169.386719 71.222813 L 168.460938 67.511875 L 167.40625 63.968906 L 166.171875 60.59 L 164.71875 57.367344 L 162.980469 54.297031 L 160.898438 51.382969 L 159.703125 49.984531 L 158.394531 48.625156 L 156.953125 47.30875 L 155.375 46.035313 L 153.636719 44.816563 L 151.730469 43.648594 L 149.632812 42.547031 L 147.328125 41.511875 L 144.800781 40.562656 L 142.023438 39.711094 L 138.980469 38.976719 L 135.640625 38.379063 L 131.988281 37.953281 L 127.996094 37.726719 L 123.640625 37.74625 L 118.902344 38.062656 L 113.765625 38.738438 L 108.222656 39.843906 L 102.265625 41.472813 L 95.910156 43.715 L 89.179688 46.68375 L 82.132812 50.500156 L 74.84375 55.289219 L 67.425781 61.172031 L 60.039062 68.261875 L 52.878906 76.632969 L 46.199219 86.316563 L 40.28125 97.265781 L 35.433594 109.34 L 31.984375 122.281406 L 30.210938 135.715 L 30.34375 149.160313 L 32.507812 162.066563 L 36.703125 173.867344 L 42.789062 184.043125 L 50.511719 192.195469 L 59.515625 198.09 L 69.40625 201.664219 L 79.773438 203.019688 L 90.257812 202.398594 L 100.550781 200.109531 L 110.414062 196.507969 L 119.695312 191.937656 L 128.285156 186.711094 L 136.140625 181.09 L 143.253906 175.281406 L 149.640625 169.445469 L 155.34375 163.699375 L 160.414062 158.117344 L 164.898438 152.750156 L 168.859375 147.62125 L 172.351562 142.74625 L 175.433594 138.125156 L 178.152344 133.754063 L 180.5625 129.62125 L 184.621094 122.031406 L 187.929688 115.257969 L 194.527344 101.394688 L 196.988281 96.925938 L 198.257812 94.906406 L 199.570312 93.031406 L 200.941406 91.297031 L 202.382812 89.703281 L 203.914062 88.261875 L 205.539062 86.965 L 207.273438 85.828281 L 209.128906 84.851719 L 211.117188 84.047031 L 213.246094 83.425938 L 215.53125 82.99625 L 217.976562 82.7775 L 220.589844 82.781406 L 223.386719 83.023594 L 226.367188 83.5275 L 229.535156 84.312656 L 232.894531 85.398594 L 236.441406 86.816563 L 240.167969 88.582188 L 244.066406 90.722813 L 248.113281 93.261875 L 252.285156 96.218906 L 256.546875 99.601719 L 260.855469 103.422031 L 265.148438 107.675938 L 269.363281 112.343906 L 273.414062 117.394688 L 277.214844 122.773594 L 280.660156 128.410313 L 283.640625 134.203281 L 286.058594 140.031406 L 287.796875 145.757969 L 288.769531 151.230625 L 288.902344 156.289219 L 288.140625 160.7775 L 286.476562 164.55875 L 283.921875 167.515781 L 280.535156 169.582188 L 276.410156 170.722813 L 271.664062 170.949375 L 266.425781 170.324375 L 260.851562 168.925938 L 255.082031 166.87125 L 249.253906 164.281406 L 243.488281 161.285313 L 237.890625 157.992344 L 232.542969 154.515781 L 227.5 150.93375 L 222.804688 147.320469 L 218.484375 143.730625 L 214.546875 140.195469 L 210.992188 136.738438 L 207.808594 133.382969 L 204.980469 130.125156 L 202.492188 126.972813 L 200.320312 123.922031 L 198.445312 120.972813 L 196.835938 118.113438 L 195.480469 115.347813 L 194.347656 112.660313 L 193.425781 110.054844 L 192.695312 107.5275 L 192.136719 105.074375 L 191.738281 102.691563 L 191.488281 100.375156 L 191.375 98.132969 L 191.386719 95.961094 L 191.519531 93.859531 L 191.769531 91.828281 L 192.128906 89.87125 L 192.597656 87.988438 L 193.171875 86.18375 L 193.851562 84.461094 L 194.640625 82.820469 L 195.539062 81.269688 L 196.550781 79.812656 L 197.683594 78.449375 L 198.9375 77.191563 L 200.324219 76.047031 L 201.84375 75.015781 L 203.515625 74.117344 L 205.339844 73.355625 L 207.328125 72.742344 L 209.492188 72.293125 L 211.84375 72.0275 L 214.394531 71.957188 L 217.152344 72.101719 L 220.128906 72.488438 L 223.339844 73.140781 L 226.785156 74.09 L 230.472656 75.359531 L 234.40625 76.984531 L 238.589844 79.000156 L 243.003906 81.445469 L 247.644531 84.355625 L 252.480469 87.757969 L 257.480469 91.687656 L 262.59375 96.164219 L 267.757812 101.199375 L 272.886719 106.789219 L 277.886719 112.9025 L 282.636719 119.492344 L 287 126.465 L 290.835938 133.711094 L 293.984375 141.066563 L 296.292969 148.343906 L 297.625 155.324375 L 297.863281 161.781406 L 296.925781 167.480625 L 294.789062 172.222813 L 291.472656 175.836094 L 287.0625 178.222813 L 281.695312 179.347813 L 275.542969 179.254063 L 268.8125 178.039219 L 261.714844 175.855625 L 254.453125 172.890781 L 247.214844 169.328281 L 240.152344 165.351719 L 233.390625 161.132969 L 227.019531 156.797031 L 221.101562 152.449375 L 215.664062 148.172031 L 210.722656 144.011875 L 206.265625 140.000156 L 202.285156 136.148594 L 198.746094 132.457188 L 195.621094 128.922031 L 192.882812 125.535313 L 190.488281 122.281406 L 188.40625 119.1525 L 186.605469 116.132969 L 185.054688 113.211094 L 183.726562 110.379063 L 182.589844 107.629063 L 181.625 104.953281 L 180.125 99.80875 L 179.078125 94.906406 L 178.378906 90.234531 L 177.9375 85.781406 L 177.691406 81.539219 L 177.601562 75.566563 L 177.769531 70.050938 L 178.152344 64.976719 L 178.746094 60.336094 L 179.578125 56.12125 L 180.292969 53.539219 L 181.160156 51.148594 L 182.214844 48.949375 L 183.492188 46.949375 L 185.042969 45.164219 L 186.925781 43.613438 L 188.015625 42.93375 L 189.214844 42.324375 L 190.539062 41.793125 L 191.996094 41.347813 L 193.605469 40.992344 L 195.382812 40.742344 L 197.339844 40.605625 L 199.496094 40.601719 L 201.875 40.742344 L 204.496094 41.050938 L 207.378906 41.547031 L 210.550781 42.265781 L 214.035156 43.234531 L 217.851562 44.49625 L 222.035156 46.086094 L 226.601562 48.066563 L 231.570312 50.488438 L 236.964844 53.422031 L 242.785156 56.93375 L 249.039062 61.105625 L 255.703125 66.023594 L 262.746094 71.761875 L 270.109375 78.4025 L 277.707031 86.007969 L 285.410156 94.613438 L 293.046875 104.222813 L 300.40625 114.773594 L 307.21875 126.132969 L 313.179688 138.082188 L 317.957031 150.293125 L 321.203125 162.343906 L 322.601562 173.730625 L 321.898438 183.906406 L 318.953125 192.336094 L 313.761719 198.582188 L 306.472656 202.37125 L 297.390625 203.617344 L 286.925781 202.468906 L 275.554688 199.242344 L 263.761719 194.390781 L 251.976562 188.410313 L 240.554688 181.769688 L 229.757812 174.882969 L 219.746094 168.05875 L 210.617188 161.519688 L 202.390625 155.386875 L 195.050781 149.722813 L 188.542969 144.539219 L 182.808594 139.812656 L 177.769531 135.500156 L 173.351562 131.554844 L 169.476562 127.929844 L 166.078125 124.570469 L 163.082031 121.437656 L 158.066406 115.707188 L 154.007812 110.523594 L 148.980469 103.507969 L 144.464844 97.250156 L 141.417969 93.492344 L 139.824219 91.750156 L 138.167969 90.105625 L 136.429688 88.566563 L 134.597656 87.136875 L 132.664062 85.832188 L 130.613281 84.660313 L 128.441406 83.629063 L 126.140625 82.761875 L 123.703125 82.066563 L 121.125 81.566563 L 118.402344 81.273594 L 115.542969 81.215 L 112.542969 81.406406 L 109.414062 81.879063 L 106.167969 82.6525 L 102.816406 83.754063 L 99.390625 85.207188 L 95.914062 87.039219 L 92.425781 89.265781 L 88.96875 91.906406 L 85.59375 94.965 L 82.359375 98.449375 L 79.332031 102.34 L 76.582031 106.613438 L 74.179688 111.222813 L 72.203125 116.117344 L 70.714844 121.211094 L 69.777344 126.410313 L 69.4375 131.609531 L 69.730469 136.687656 L 70.664062 141.5275 L 72.234375 146.007969 L 74.410156 150.019688 L 77.136719 153.472813 L 80.347656 156.293125 L 83.96875 158.445469 L 87.898438 159.898594 L 92.054688 160.668125 L 96.34375 160.781406 L 100.675781 160.281406 L 104.980469 159.230625 L 109.191406 157.691563 L 113.246094 155.738438 L 117.109375 153.441563 L 120.742188 150.867344 L 124.125 148.078281 L 127.242188 145.125156 L 130.085938 142.05875 L 132.652344 138.922031 L 134.949219 135.742344 L 136.980469 132.55875 L 138.753906 129.386875 L 140.285156 126.242344 L 141.574219 123.148594 L 142.644531 120.109531 L 143.5 117.136875 L 144.15625 114.238438 L 144.617188 111.414219 L 144.898438 108.675938 L 145.003906 106.019688 L 144.941406 103.449375 L 144.722656 100.968906 L 144.34375 98.578281 L 143.8125 96.281406 L 143.128906 94.082188 L 142.300781 91.976719 L 141.320312 89.972813 L 140.1875 88.074375 L 138.90625 86.285313 L 137.46875 84.609531 L 135.875 83.054844 L 134.117188 81.629063 L 132.199219 80.343906 L 130.109375 79.211094 L 127.84375 78.238438 L 125.40625 77.445469 L 122.785156 76.847813 L 119.988281 76.468906 L 117.007812 76.328281 L 113.855469 76.449375 L 110.53125 76.863438 L 107.054688 77.593906 L 103.433594 78.679844 L 99.695312 80.148594 L 95.867188 82.0275 L 91.992188 84.351719 L 88.113281 87.144688 L 84.292969 90.422031 L 80.589844 94.195469 L 77.085938 98.453281 L 73.863281 103.18375 L 71.011719 108.336094 L 68.617188 113.855625 L 66.773438 119.6525 L 65.550781 125.617344 L 65.023438 131.617344 L 65.234375 137.515781 L 66.203125 143.156406 L 67.925781 148.390781 L 70.367188 153.086094 L 73.46875 157.12125 L 77.140625 160.410313 L 81.292969 162.894688 L 85.808594 164.554844 L 90.574219 165.4025 L 95.480469 165.480625 L 100.425781 164.847813 L 105.3125 163.582188 L 110.074219 161.765781 L 114.636719 159.49625 L 118.960938 156.855625 L 123.011719 153.922031 L 126.761719 150.769688 L 130.203125 147.465 L 133.332031 144.05875 L 136.152344 140.593906 L 138.664062 137.113438 L 140.886719 133.640781 L 142.828125 130.199375 L 144.503906 126.80875 L 145.929688 123.484531 L 147.121094 120.230625 L 148.09375 117.054844 L 148.859375 113.965 L 149.429688 110.961094 L 149.820312 108.047031 L 150.039062 105.222813 L 150.09375 102.492344 L 149.992188 99.847813 L 149.742188 97.297031 L 149.347656 94.836094 L 148.8125 92.468906 L 148.132812 90.191563 L 147.320312 88.004063 L 146.363281 85.914219 L 145.265625 83.918125 L 144.023438 82.019688 L 142.632812 80.222813 L 141.089844 78.535313 L 139.386719 76.965 L 137.515625 75.511875 L 135.472656 74.191563 L 133.253906 73.015781 L 130.84375 71.992344 L 128.246094 71.148594 L 125.445312 70.492344 L 122.441406 70.050938 L 119.230469 69.851719 L 115.808594 69.922031 L 112.183594 70.289219 L 108.363281 70.99625 L 104.359375 72.078281 L 100.191406 73.574375 L 95.890625 75.531406 L 91.492188 77.984531 L 87.050781 80.976719 L 82.628906 84.539219 L 78.296875 88.691563 L 74.15625 93.441563 L 70.296875 98.781406 L 66.835938 104.668125 L 63.886719 111.039219 L 61.566406 117.797031 L 59.980469 124.80875 L 59.21875 131.914219 L 59.351562 138.937656 L 60.410156 145.675938 L 62.394531 151.93375 L 65.257812 157.531406 L 68.929688 162.316563 L 73.296875 166.175938 L 78.230469 169.039219 L 83.585938 170.886875 L 89.21875 171.742344 L 94.984375 171.668125 L 100.753906 170.754063 L 106.421875 169.109531 L 111.898438 166.847813 L 117.109375 164.09 L 122.011719 160.941563 L 126.570312 157.504063 L 130.761719 153.859531 L 134.585938 150.086094 L 138.042969 146.242344 L 141.144531 142.375156 L 143.898438 138.519688 L 146.332031 134.711094 L 148.457031 130.961094 L 150.296875 127.293125 L 151.875 123.715 L 153.207031 120.230625 L 154.316406 116.843906 L 155.21875 113.562656 L 155.929688 110.379063 L 156.46875 107.300938 L 156.839844 104.316563 L 157.066406 101.43375 L 157.148438 98.640781 L 157.097656 95.941563 L 156.921875 93.336094 L 156.621094 90.812656 L 156.203125 88.379063 L 155.671875 86.023594 L 155.023438 83.754063 L 154.257812 81.566563 L 153.375 79.453281 L 152.371094 77.425938 L 151.238281 75.476719 L 149.976562 73.613438 L 148.578125 71.832188 L 147.035156 70.140781 L 145.335938 68.547031 L 143.476562 67.047031 L 141.441406 65.660313 L 139.222656 64.386875 L 136.804688 63.250156 L 134.183594 62.254063 L 131.339844 61.425938 L 128.269531 60.781406 L 124.953125 60.347813 L 121.390625 60.156406 L 117.570312 60.242344 L 113.492188 60.648594 L 109.160156 61.414219 L 104.578125 62.597813 L 99.765625 64.24625 L 94.753906 66.425938 L 89.585938 69.195469 L 84.3125 72.617344 L 79.007812 76.742344 L 73.773438 81.613438 L 68.71875 87.261875 L 63.980469 93.68375 L 59.707031 100.843906 L 56.058594 108.672031 L 53.199219 117.035313 L 51.285156 125.765781 L 50.445312 134.636875 L 50.773438 143.390781 L 52.316406 151.742344 L 55.0625 159.422031 L 58.941406 166.168125 L 63.828125 171.7775 L 69.558594 176.117344 L 75.929688 179.113438 L 82.746094 180.781406 L 89.792969 181.187656 L 96.894531 180.457188 L 103.886719 178.738438 L 110.644531 176.203281 L 117.070312 173.019688 L 123.097656 169.347813 L 128.683594 165.324375 L 133.808594 161.070469 L 138.46875 156.68375 L 142.671875 152.24625 L 146.433594 147.816563 L 149.785156 143.437656 L 152.75 139.144688 L 155.355469 134.957188 L 157.632812 130.886875 L 159.617188 126.945469 L 161.332031 123.136875 L 162.804688 119.457188 L 164.0625 115.910313 L 165.128906 112.492344 L 166.023438 109.195469 L 167.375 102.953281 L 168.246094 97.144688 L 168.738281 91.730625 L 168.921875 86.668125 L 168.847656 81.929844 L 168.546875 77.484531 L 168.035156 73.297031 L 167.3125 69.347813 L 166.371094 65.62125 L 165.1875 62.09 L 163.726562 58.74625 L 161.945312 55.582188 L 159.78125 52.59 L 158.53125 51.156406 L 157.160156 49.773594 L 155.648438 48.437656 L 153.988281 47.1525 L 152.167969 45.925938 L 150.164062 44.757969 L 147.960938 43.660313 L 145.546875 42.648594 L 142.894531 41.726719 L 139.988281 40.914219 L 136.804688 40.238438 L 133.320312 39.715 L 129.511719 39.382969 L 125.359375 39.2775 L 120.839844 39.445469 L 115.941406 39.945469 L 110.644531 40.84 L 104.949219 42.207188 L 98.863281 44.144688 L 92.402344 46.74625 L 85.609375 50.125156 L 78.550781 54.4025 L 71.320312 59.695469 L 64.054688 66.117344 L 56.929688 73.757969 L 50.164062 82.660313 L 44.015625 92.812656 L 38.773438 104.125156 L 34.75 116.398594 L 32.230469 129.320469 L 31.46875 142.476719 L 32.628906 155.363438 L 35.769531 167.43375 L 40.824219 178.172031 L 47.59375 187.125156 L 55.789062 193.992344 L 65.039062 198.625156 L 74.957031 201.043125 L 85.167969 201.418125 " transform="matrix(1,0,0,-1,0,238.84)"/>
</g>
</g>
</svg>
