<?xml version="1.0" encoding="UTF-8"?>
<svg xmlns="http://www.w3.org/2000/svg" xmlns:xlink="http://www.w3.org/1999/xlink" width="58pt" height="58pt" viewBox="0 0 58 58" version="1.1">
<g id="surface1">
<path style="fill:none;stroke-width:0.24907;stroke-linecap:butt;stroke-linejoin:miter;stroke:rgb(0%,0%,0%);stroke-opacity:1;stroke-miterlimit:10;" d="M 28.345719 28.346687 C 28.345719 44.002937 15.654313 56.694344 -0.0019375 56.694344 C -15.654281 56.694344 -28.345687 44.002937 -28.345687 28.346687 C -28.345687 12.690437 -15.654281 -0.00096875 -0.0019375 -0.00096875 C 15.654313 -0.00096875 28.345719 12.690437 28.345719 28.346687 Z M 28.345719 28.346687 " transform="matrix(1,0,0,-1,29.166,57.417)"/>
<path style="fill:none;stroke-width:0.24907;stroke-linecap:butt;stroke-linejoin:miter;stroke:rgb(0%,0%,0%);stroke-opacity:1;stroke-miterlimit:10;" d="M 14.173844 14.174812 C 14.173844 22.002937 7.826188 28.346687 -0.0019375 28.346687 C -7.826156 28.346687 -14.173812 22.002937 -14.173812 14.174812 C -14.173812 6.346687 -7.826156 -0.00096875 -0.0019375 -0.00096875 C 7.826188 -0.00096875 14.173844 6.346687 14.173844 14.174812 Z M 14.173844 14.174812 " transform="matrix(1,0,0,-1,29.166,57.417)"/>
<path style="fill:none;stroke-width:0.16603;stroke-linecap:butt;stroke-linejoin:miter;stroke:rgb(0%,0%,0%);stroke-opacity:1;stroke-miterlimit:10;" d="M 9.447281 9.44825 C 9.447281 14.667 5.216813 18.897469 -0.0019375 18.897469 C -5.216781 18.897469 -9.44725 14.667 -9.44725 9.44825 C -9.44725 4.2295 -5.216781 -0.00096875 -0.0019375 -0.00096875 C 5.216813 -0.00096875 9.447281 4.2295 9.447281 9.44825 Z M 9.447281 9.44825 " transform="matrix(1,0,0,-1,29.166,57.417)"/>
<path style="fill:none;stroke-width:0.12453;stroke-linecap:butt;stroke-linejoin:miter;stroke:rgb(0%,0%,0%);stroke-opacity:1;stroke-miterlimit:10;" d="M 7.087906 7.084969 C 7.087906 10.999031 3.912125 14.174812 -0.0019375 14.174812 C -3.912094 14.174812 -7.087875 10.999031 -7.087875 7.084969 C -7.087875 3.170906 -3.912094 -0.00096875 -0.0019375 -0.00096875 C 3.912125 -0.00096875 7.087906 3.170906 7.087906 7.084969 Z M 7.087906 7.084969 " transform="matrix(1,0,0,-1,29.166,57.417)"/>
<path style="fill:none;stroke-width:0.09961;stroke-linecap:butt;stroke-linejoin:miter;stroke:rgb(0%,0%,0%);stroke-opacity:1;stroke-miterlimit:10;" d="M 5.669938 5.670906 C 5.669938 8.799812 3.130875 11.338875 -0.0019375 11.338875 C -3.130844 11.338875 -5.669906 8.799812 -5.669906 5.670906 C -5.669906 2.538094 -3.130844 -0.00096875 -0.0019375 -0.00096875 C 3.130875 -0.00096875 5.669938 2.538094 5.669938 5.670906 Z M 5.669938 5.670906 " transform="matrix(1,0,0,-1,29.166,57.417)"/>
<path style="fill:none;stroke-width:0.08301;stroke-linecap:butt;stroke-linejoin:miter;stroke:rgb(0%,0%,0%);stroke-opacity:1;stroke-miterlimit:10;" d="M 4.724625 4.725594 C 4.724625 7.334969 2.607438 9.44825 -0.0019375 9.44825 C -2.607406 9.44825 -4.724594 7.334969 -4.724594 4.725594 C -4.724594 2.116219 -2.607406 -0.00096875 -0.0019375 -0.00096875 C 2.607438 -0.00096875 4.724625 2.116219 4.724625 4.725594 Z M 4.724625 4.725594 " transform="matrix(1,0,0,-1,29.166,57.417)"/>
<path style="fill:none;stroke-width:0.07115;stroke-linecap:butt;stroke-linejoin:miter;stroke:rgb(0%,0%,0%);stroke-opacity:1;stroke-miterlimit:10;" d="M 4.048844 4.049812 C 4.048844 6.284187 2.236344 8.100594 -0.0019375 8.100594 C -2.236312 8.100594 -4.048812 6.284187 -4.048812 4.049812 C -4.048812 1.811531 -2.236312 -0.00096875 -0.0019375 -0.00096875 C 2.236344 -0.00096875 4.048844 1.811531 4.048844 4.049812 Z M 4.048844 4.049812 " transform="matrix(1,0,0,-1,29.166,57.417)"/>
<path style="fill:none;stroke-width:0.06226;stroke-linecap:butt;stroke-linejoin:miter;stroke:rgb(0%,0%,0%);stroke-opacity:1;stroke-miterlimit:10;" d="M 3.544938 3.542 C 3.544938 5.499031 1.955094 7.084969 -0.0019375 7.084969 C -1.955062 7.084969 -3.544906 5.499031 -3.544906 3.542 C -3.544906 1.584969 -1.955062 -0.00096875 -0.0019375 -0.00096875 C 1.955094 -0.00096875 3.544938 1.584969 3.544938 3.542 Z M 3.544938 3.542 " transform="matrix(1,0,0,-1,29.166,57.417)"/>
<path style="fill:none;stroke-width:0.05533;stroke-linecap:butt;stroke-linejoin:miter;stroke:rgb(0%,0%,0%);stroke-opacity:1;stroke-miterlimit:10;" d="M 3.150406 3.147469 C 3.150406 4.889656 1.74025 6.299812 -0.0019375 6.299812 C -1.740219 6.299812 -3.150375 4.889656 -3.150375 3.147469 C -3.150375 1.409187 -1.740219 -0.00096875 -0.0019375 -0.00096875 C 1.74025 -0.00096875 3.150406 1.409187 3.150406 3.147469 Z M 3.150406 3.147469 " transform="matrix(1,0,0,-1,29.166,57.417)"/>
<path style="fill:none;stroke-width:0.04979;stroke-linecap:butt;stroke-linejoin:miter;stroke:rgb(0%,0%,0%);stroke-opacity:1;stroke-miterlimit:10;" d="M 2.834 2.834969 C 2.834 4.401375 1.564469 5.667 -0.0019375 5.667 C -1.564437 5.667 -2.833969 4.401375 -2.833969 2.834969 C -2.833969 1.268562 -1.564437 -0.00096875 -0.0019375 -0.00096875 C 1.564469 -0.00096875 2.834 1.268562 2.834 2.834969 Z M 2.834 2.834969 " transform="matrix(1,0,0,-1,29.166,57.417)"/>
<path style="fill:none;stroke-width:0.04526;stroke-linecap:butt;stroke-linejoin:miter;stroke:rgb(0%,0%,0%);stroke-opacity:1;stroke-miterlimit:10;" d="M 2.576188 2.577156 C 2.576188 3.999031 1.423844 5.151375 -0.0019375 5.151375 C -1.423812 5.151375 -2.576156 3.999031 -2.576156 2.577156 C -2.576156 1.155281 -1.423812 -0.00096875 -0.0019375 -0.00096875 C 1.423844 -0.00096875 2.576188 1.155281 2.576188 2.577156 Z M 2.576188 2.577156 " transform="matrix(1,0,0,-1,29.166,57.417)"/>
<path style="fill:none;stroke-width:0.04149;stroke-linecap:butt;stroke-linejoin:miter;stroke:rgb(0%,0%,0%);stroke-opacity:1;stroke-miterlimit:10;" d="M 2.361344 2.362312 C 2.361344 3.667 1.30275 4.725594 -0.0019375 4.725594 C -1.302719 4.725594 -2.361312 3.667 -2.361312 2.362312 C -2.361312 1.057625 -1.302719 -0.00096875 -0.0019375 -0.00096875 C 1.30275 -0.00096875 2.361344 1.057625 2.361344 2.362312 Z M 2.361344 2.362312 " transform="matrix(1,0,0,-1,29.166,57.417)"/>
<path style="fill:none;stroke-width:0.0383;stroke-linecap:butt;stroke-linejoin:miter;stroke:rgb(0%,0%,0%);stroke-opacity:1;stroke-miterlimit:10;" d="M 2.181656 2.178719 C 2.181656 3.38575 1.205094 4.362312 -0.0019375 4.362312 C -1.205062 4.362312 -2.181625 3.38575 -2.181625 2.178719 C -2.181625 0.975594 -1.205062 -0.00096875 -0.0019375 -0.00096875 C 1.205094 -0.00096875 2.181656 0.975594 2.181656 2.178719 Z M 2.181656 2.178719 " transform="matrix(1,0,0,-1,29.166,57.417)"/>
<path style="fill:none;stroke-width:0.03557;stroke-linecap:butt;stroke-linejoin:miter;stroke:rgb(0%,0%,0%);stroke-opacity:1;stroke-miterlimit:10;" d="M 2.025406 2.026375 C 2.025406 3.143562 1.119156 4.049812 -0.0019375 4.049812 C -1.119125 4.049812 -2.025375 3.143562 -2.025375 2.026375 C -2.025375 0.905281 -1.119125 -0.00096875 -0.0019375 -0.00096875 C 1.119156 -0.00096875 2.025406 0.905281 2.025406 2.026375 Z M 2.025406 2.026375 " transform="matrix(1,0,0,-1,29.166,57.417)"/>
<path style="fill:none;stroke-width:0.03319;stroke-linecap:butt;stroke-linejoin:miter;stroke:rgb(0%,0%,0%);stroke-opacity:1;stroke-miterlimit:10;" d="M 1.888688 1.889656 C 1.888688 2.932625 1.044938 3.780281 -0.0019375 3.780281 C -1.044906 3.780281 -1.888656 2.932625 -1.888656 1.889656 C -1.888656 0.846687 -1.044906 -0.00096875 -0.0019375 -0.00096875 C 1.044938 -0.00096875 1.888688 0.846687 1.888688 1.889656 Z M 1.888688 1.889656 " transform="matrix(1,0,0,-1,29.166,57.417)"/>
<path style="fill:none;stroke-width:0.03113;stroke-linecap:butt;stroke-linejoin:miter;stroke:rgb(0%,0%,0%);stroke-opacity:1;stroke-miterlimit:10;" d="M 1.7715 1.772469 C 1.7715 2.749031 0.978531 3.542 -0.0019375 3.542 C -0.9785 3.542 -1.771469 2.749031 -1.771469 1.772469 C -1.771469 0.792 -0.9785 -0.00096875 -0.0019375 -0.00096875 C 0.978531 -0.00096875 1.7715 0.792 1.7715 1.772469 Z M 1.7715 1.772469 " transform="matrix(1,0,0,-1,29.166,57.417)"/>
<path style="fill:none;stroke-width:0.02928;stroke-linecap:butt;stroke-linejoin:miter;stroke:rgb(0%,0%,0%);stroke-opacity:1;stroke-miterlimit:10;" d="M 1.666031 1.667 C 1.666031 2.588875 0.919938 3.334969 -0.0019375 3.334969 C -0.919906 3.334969 -1.666 2.588875 -1.666 1.667 C -1.666 0.745125 -0.919906 -0.00096875 -0.0019375 -0.00096875 C 0.919938 -0.00096875 1.666031 0.745125 1.666031 1.667 Z M 1.666031 1.667 " transform="matrix(1,0,0,-1,29.166,57.417)"/>
<path style="fill:none;stroke-width:0.02766;stroke-linecap:butt;stroke-linejoin:miter;stroke:rgb(0%,0%,0%);stroke-opacity:1;stroke-miterlimit:10;" d="M 1.576188 1.57325 C 1.576188 2.444344 0.869156 3.147469 -0.0019375 3.147469 C -0.869125 3.147469 -1.576156 2.444344 -1.576156 1.57325 C -1.576156 0.706062 -0.869125 -0.00096875 -0.0019375 -0.00096875 C 0.869156 -0.00096875 1.576188 0.706062 1.576188 1.57325 Z M 1.576188 1.57325 " transform="matrix(1,0,0,-1,29.166,57.417)"/>
<path style="fill:none;stroke-width:0.0262;stroke-linecap:butt;stroke-linejoin:miter;stroke:rgb(0%,0%,0%);stroke-opacity:1;stroke-miterlimit:10;" d="M 1.49025 1.491219 C 1.49025 2.315437 0.822281 2.983406 -0.0019375 2.983406 C -0.82225 2.983406 -1.490219 2.315437 -1.490219 1.491219 C -1.490219 0.667 -0.82225 -0.00096875 -0.0019375 -0.00096875 C 0.822281 -0.00096875 1.49025 0.667 1.49025 1.491219 Z M 1.49025 1.491219 " transform="matrix(1,0,0,-1,29.166,57.417)"/>
<path style="fill:none;stroke-width:0.02489;stroke-linecap:butt;stroke-linejoin:miter;stroke:rgb(0%,0%,0%);stroke-opacity:1;stroke-miterlimit:10;" d="M 1.416031 1.417 C 1.416031 2.19825 0.783219 2.834969 -0.0019375 2.834969 C -0.783187 2.834969 -1.416 2.19825 -1.416 1.417 C -1.416 0.63575 -0.783187 -0.00096875 -0.0019375 -0.00096875 C 0.783219 -0.00096875 1.416031 0.63575 1.416031 1.417 Z M 1.416031 1.417 " transform="matrix(1,0,0,-1,29.166,57.417)"/>
<path style="fill:none;stroke-width:0.02371;stroke-linecap:butt;stroke-linejoin:miter;stroke:rgb(0%,0%,0%);stroke-opacity:1;stroke-miterlimit:10;" d="M 1.349625 1.350594 C 1.349625 2.096687 0.744156 2.69825 -0.0019375 2.69825 C -0.744125 2.69825 -1.349594 2.096687 -1.349594 1.350594 C -1.349594 0.6045 -0.744125 -0.00096875 -0.0019375 -0.00096875 C 0.744156 -0.00096875 1.349625 0.6045 1.349625 1.350594 Z M 1.349625 1.350594 " transform="matrix(1,0,0,-1,29.166,57.417)"/>
<path style="fill:none;stroke-width:0.02263;stroke-linecap:butt;stroke-linejoin:miter;stroke:rgb(0%,0%,0%);stroke-opacity:1;stroke-miterlimit:10;" d="M 1.287125 1.288094 C 1.287125 1.999031 0.712906 2.577156 -0.0019375 2.577156 C -0.712875 2.577156 -1.287094 1.999031 -1.287094 1.288094 C -1.287094 0.577156 -0.712875 -0.00096875 -0.0019375 -0.00096875 C 0.712906 -0.00096875 1.287125 0.577156 1.287125 1.288094 Z M 1.287125 1.288094 " transform="matrix(1,0,0,-1,29.166,57.417)"/>
<path style="fill:none;stroke-width:0.02164;stroke-linecap:butt;stroke-linejoin:miter;stroke:rgb(0%,0%,0%);stroke-opacity:1;stroke-miterlimit:10;" d="M 1.232438 1.233406 C 1.232438 1.913094 0.681656 2.463875 -0.0019375 2.463875 C -0.681625 2.463875 -1.232406 1.913094 -1.232406 1.233406 C -1.232406 0.549812 -0.681625 -0.00096875 -0.0019375 -0.00096875 C 0.681656 -0.00096875 1.232438 0.549812 1.232438 1.233406 Z M 1.232438 1.233406 " transform="matrix(1,0,0,-1,29.166,57.417)"/>
<path style="fill:none;stroke-width:0.02074;stroke-linecap:butt;stroke-linejoin:miter;stroke:rgb(0%,0%,0%);stroke-opacity:1;stroke-miterlimit:10;" d="M 1.181656 1.182625 C 1.181656 1.831062 0.650406 2.362312 -0.0019375 2.362312 C -0.650375 2.362312 -1.181625 1.831062 -1.181625 1.182625 C -1.181625 0.530281 -0.650375 -0.00096875 -0.0019375 -0.00096875 C 0.650406 -0.00096875 1.181656 0.530281 1.181656 1.182625 Z M 1.181656 1.182625 " transform="matrix(1,0,0,-1,29.166,57.417)"/>
<path style="fill:none;stroke-width:0.01991;stroke-linecap:butt;stroke-linejoin:miter;stroke:rgb(0%,0%,0%);stroke-opacity:1;stroke-miterlimit:10;" d="M 1.134781 1.131844 C 1.134781 1.76075 0.626969 2.268562 -0.0019375 2.268562 C -0.626937 2.268562 -1.13475 1.76075 -1.13475 1.131844 C -1.13475 0.506844 -0.626937 -0.00096875 -0.0019375 -0.00096875 C 0.626969 -0.00096875 1.134781 0.506844 1.134781 1.131844 Z M 1.134781 1.131844 " transform="matrix(1,0,0,-1,29.166,57.417)"/>
<path style="fill-rule:nonzero;fill:rgb(0%,0%,0%);fill-opacity:1;stroke-width:0.01991;stroke-linecap:butt;stroke-linejoin:miter;stroke:rgb(0%,0%,0%);stroke-opacity:1;stroke-miterlimit:10;" d="M 1.134781 1.131844 C 1.134781 1.76075 0.626969 2.268562 -0.0019375 2.268562 C -0.626937 2.268562 -1.13475 1.76075 -1.13475 1.131844 C -1.13475 0.506844 -0.626937 -0.00096875 -0.0019375 -0.00096875 C 0.626969 -0.00096875 1.134781 0.506844 1.134781 1.131844 Z M 1.134781 1.131844 " transform="matrix(1,0,0,-1,29.166,57.417)"/>
</g>
</svg>
