<?xml version="1.0" encoding="UTF-8"?>
<svg xmlns="http://www.w3.org/2000/svg" xmlns:xlink="http://www.w3.org/1999/xlink" width="43pt" height="30pt" viewBox="0 0 43 30" version="1.1">
<g id="surface1">
<path style="fill:none;stroke-width:0.24907;stroke-linecap:butt;stroke-linejoin:miter;stroke:rgb(0%,0%,0%);stroke-opacity:1;stroke-miterlimit:10;" d="M 28.345188 0.00034375 C 28.345188 0.00034375 27.989719 1.328469 27.829563 1.824562 C 27.673313 2.320656 27.392063 3.101906 27.204563 3.582375 C 27.017063 4.058937 26.692844 4.808937 26.474094 5.265969 C 26.25925 5.723 25.892063 6.437844 25.649875 6.871437 C 25.407688 7.305031 25.001438 7.984719 24.735813 8.394875 C 24.474094 8.808937 24.028781 9.449562 23.743625 9.832375 C 23.458469 10.219094 22.981906 10.820656 22.677219 11.180031 C 22.372531 11.543312 21.864719 12.101906 21.5405 12.433937 C 21.216281 12.769875 20.685031 13.2855 20.345188 13.590187 C 20.005344 13.898781 19.450656 14.371437 19.095188 14.652687 C 18.743625 14.933937 18.169406 15.359719 17.806125 15.613625 C 17.442844 15.867531 16.849094 16.246437 16.474094 16.473 C 16.099094 16.695656 15.493625 17.0355 15.114719 17.230812 C 14.731906 17.426125 14.110813 17.715187 13.724094 17.883156 C 13.337375 18.055031 12.716281 18.301125 12.325656 18.44175 C 11.935031 18.582375 11.306125 18.7855 10.911594 18.898781 C 10.520969 19.012062 9.888156 19.168312 9.497531 19.25425 C 9.103 19.336281 8.474094 19.453469 8.083469 19.512062 C 7.692844 19.570656 7.067844 19.640969 6.681125 19.672219 C 6.2905 19.703469 5.673313 19.734719 5.2905 19.742531 C 4.907688 19.750344 4.298313 19.738625 3.923313 19.719094 C 3.548313 19.703469 2.950656 19.652687 2.583469 19.613625 C 2.216281 19.570656 1.63425 19.484719 1.274875 19.418312 C 0.9155 19.351906 0.0014375 19.144875 0.0014375 19.144875 " transform="matrix(1,0,0,-1,14.147,20.473)"/>
<path style="fill:none;stroke-width:0.23349;stroke-linecap:butt;stroke-linejoin:miter;stroke:rgb(0%,0%,0%);stroke-opacity:1;stroke-miterlimit:10;" d="M 0.0014375 19.144875 C 0.0014375 19.144875 -0.897 18.898781 -1.232937 18.789406 C -1.564969 18.683937 -2.096219 18.496437 -2.416531 18.367531 C -2.74075 18.242531 -3.248562 18.023781 -3.557156 17.87925 C -3.861844 17.730812 -4.346219 17.480812 -4.639187 17.320656 C -4.932156 17.156594 -5.393094 16.883156 -5.670437 16.703469 C -5.947781 16.527687 -6.381375 16.226906 -6.639187 16.031594 C -6.900906 15.840187 -7.307156 15.515969 -7.549344 15.308937 C -7.791531 15.101906 -8.170437 14.765969 -8.397 14.547219 C -8.623562 14.328469 -8.971219 13.965187 -9.17825 13.738625 C -9.385281 13.508156 -9.705594 13.133156 -9.893094 12.894875 C -10.0845 12.656594 -10.373562 12.269875 -10.541531 12.023781 C -10.713406 11.777687 -10.971219 11.375344 -11.123562 11.125344 C -11.272 10.871437 -11.502469 10.461281 -11.635281 10.203469 C -11.768094 9.945656 -11.963406 9.531594 -12.076687 9.269875 C -12.189969 9.008156 -12.357937 8.586281 -12.451687 8.320656 C -12.549344 8.058937 -12.686062 7.633156 -12.760281 7.367531 C -12.8345 7.101906 -12.939969 6.676125 -12.998562 6.4105 C -13.057156 6.144875 -13.135281 5.723 -13.174344 5.457375 C -13.213406 5.195656 -13.260281 4.773781 -13.283719 4.512062 C -13.307156 4.250344 -13.326687 3.832375 -13.330594 3.574562 C -13.3345 3.31675 -13.326687 2.902687 -13.314969 2.648781 C -13.30325 2.394875 -13.272 1.992531 -13.24075 1.746437 C -13.213406 1.496437 -13.154812 1.101906 -13.107937 0.859719 C -13.064969 0.617531 -12.924344 0.00034375 -12.924344 0.00034375 " transform="matrix(1,0,0,-1,14.147,20.473)"/>
<path style="fill:none;stroke-width:0.21793;stroke-linecap:butt;stroke-linejoin:miter;stroke:rgb(0%,0%,0%);stroke-opacity:1;stroke-miterlimit:10;" d="M -12.924344 0.00034375 C -12.924344 0.00034375 -12.760281 -0.605125 -12.689969 -0.831688 C -12.61575 -1.05825 -12.486844 -1.413719 -12.400906 -1.632469 C -12.314969 -1.851219 -12.170437 -2.191063 -12.072781 -2.402 C -11.971219 -2.609031 -11.80325 -2.93325 -11.693875 -3.132469 C -11.5845 -3.331688 -11.397 -3.640281 -11.279812 -3.827781 C -11.158719 -4.015281 -10.955594 -4.30825 -10.826687 -4.484031 C -10.693875 -4.659813 -10.479031 -4.93325 -10.338406 -5.097313 C -10.197781 -5.261375 -9.967312 -5.515281 -9.822781 -5.671531 C -9.674344 -5.823875 -9.432156 -6.05825 -9.275906 -6.198875 C -9.119656 -6.3395 -8.869656 -6.554344 -8.705594 -6.679344 C -8.545437 -6.80825 -8.283719 -7.003563 -8.11575 -7.116844 C -7.951687 -7.234031 -7.682156 -7.405906 -7.510281 -7.507469 C -7.338406 -7.612938 -7.064969 -7.765281 -6.889187 -7.855125 C -6.717312 -7.944969 -6.436062 -8.077781 -6.260281 -8.155906 C -6.080594 -8.230125 -5.795437 -8.343406 -5.619656 -8.409813 C -5.439969 -8.472313 -5.154812 -8.562156 -4.975125 -8.616844 C -4.795437 -8.667625 -4.506375 -8.737938 -4.330594 -8.777 C -4.150906 -8.816063 -3.861844 -8.866844 -3.686062 -8.894188 C -3.506375 -8.921531 -3.221219 -8.952781 -3.045437 -8.968406 C -2.869656 -8.984031 -2.588406 -8.999656 -2.412625 -8.999656 C -2.236844 -9.003563 -1.9595 -8.99575 -1.787625 -8.987938 C -1.61575 -8.980125 -1.346219 -8.960594 -1.17825 -8.941063 C -1.010281 -8.921531 -0.744656 -8.882469 -0.580594 -8.851219 C -0.416531 -8.823875 -0.00246875 -8.726219 -0.00246875 -8.726219 " transform="matrix(1,0,0,-1,14.147,20.473)"/>
<path style="fill:none;stroke-width:0.20236;stroke-linecap:butt;stroke-linejoin:miter;stroke:rgb(0%,0%,0%);stroke-opacity:1;stroke-miterlimit:10;" d="M 0.0014375 -8.726219 C 0.0014375 -8.726219 0.407688 -8.616844 0.560031 -8.566063 C 0.712375 -8.519188 0.954563 -8.429344 1.103 -8.374656 C 1.247531 -8.316063 1.481906 -8.218406 1.622531 -8.152 C 1.763156 -8.085594 1.981906 -7.968406 2.114719 -7.894188 C 2.247531 -7.819969 2.458469 -7.694969 2.583469 -7.612938 C 2.708469 -7.530906 2.907688 -7.394188 3.024875 -7.30825 C 3.145969 -7.218406 3.329563 -7.073875 3.442844 -6.980125 C 3.552219 -6.886375 3.724094 -6.730125 3.829563 -6.632469 C 3.931125 -6.530906 4.091281 -6.366844 4.185031 -6.265281 C 4.278781 -6.159813 4.423313 -5.987938 4.50925 -5.878563 C 4.595188 -5.773094 4.728 -5.593406 4.806125 -5.480125 C 4.88425 -5.366844 5.001438 -5.187156 5.067844 -5.069969 C 5.138156 -4.956688 5.243625 -4.769188 5.302219 -4.652 C 5.364719 -4.534813 5.454563 -4.343406 5.505344 -4.226219 C 5.556125 -4.105125 5.63425 -3.913719 5.677219 -3.792625 C 5.720188 -3.671531 5.782688 -3.480125 5.817844 -3.359031 C 5.853 -3.237938 5.899875 -3.042625 5.927219 -2.925438 C 5.954563 -2.804344 5.989719 -2.609031 6.005344 -2.487938 C 6.024875 -2.366844 6.048313 -2.175438 6.056125 -2.054344 C 6.067844 -1.937156 6.075656 -1.74575 6.075656 -1.628563 C 6.079563 -1.511375 6.075656 -1.323875 6.07175 -1.206688 C 6.063938 -1.093406 6.048313 -0.909813 6.036594 -0.796531 C 6.024875 -0.68325 5.997531 -0.503563 5.978 -0.394188 C 5.958469 -0.280906 5.892063 0.00034375 5.892063 0.00034375 " transform="matrix(1,0,0,-1,14.147,20.473)"/>
<path style="fill:none;stroke-width:0.1868;stroke-linecap:butt;stroke-linejoin:miter;stroke:rgb(0%,0%,0%);stroke-opacity:1;stroke-miterlimit:10;" d="M 5.892063 0.00034375 C 5.892063 0.00034375 5.817844 0.273781 5.786594 0.37925 C 5.751438 0.480812 5.692844 0.644875 5.653781 0.742531 C 5.614719 0.844094 5.548313 1.000344 5.501438 1.094094 C 5.458469 1.187844 5.380344 1.336281 5.333469 1.430031 C 5.282688 1.519875 5.19675 1.6605 5.142063 1.746437 C 5.087375 1.828469 4.993625 1.961281 4.935031 2.043312 C 4.876438 2.125344 4.774875 2.246437 4.712375 2.324562 C 4.649875 2.398781 4.544406 2.515969 4.478 2.582375 C 4.407688 2.652687 4.298313 2.762062 4.228 2.824562 C 4.157688 2.890969 4.044406 2.988625 3.970188 3.047219 C 3.895969 3.101906 3.774875 3.19175 3.700656 3.242531 C 3.626438 3.297219 3.501438 3.37925 3.423313 3.422219 C 3.345188 3.469094 3.220188 3.539406 3.142063 3.582375 C 3.060031 3.621437 2.935031 3.683937 2.853 3.719094 C 2.770969 3.750344 2.642063 3.801125 2.560031 3.832375 C 2.478 3.859719 2.349094 3.906594 2.267063 3.930031 C 2.185031 3.953469 2.056125 3.984719 1.974094 4.000344 C 1.892063 4.019875 1.75925 4.043312 1.681125 4.055031 C 1.599094 4.06675 1.470188 4.082375 1.388156 4.090187 C 1.306125 4.094094 1.177219 4.101906 1.099094 4.101906 C 1.020969 4.101906 0.892063 4.101906 0.813938 4.098 C 0.735813 4.094094 0.614719 4.082375 0.536594 4.074562 C 0.458469 4.06675 0.337375 4.047219 0.263156 4.0355 C 0.188938 4.019875 0.0014375 3.976906 0.0014375 3.976906 " transform="matrix(1,0,0,-1,14.147,20.473)"/>
<path style="fill:none;stroke-width:0.17123;stroke-linecap:butt;stroke-linejoin:miter;stroke:rgb(0%,0%,0%);stroke-opacity:1;stroke-miterlimit:10;" d="M 0.0014375 3.976906 C 0.0014375 3.976906 -0.186062 3.926125 -0.256375 3.902687 C -0.326687 3.883156 -0.436062 3.844094 -0.502469 3.81675 C -0.568875 3.789406 -0.674344 3.746437 -0.736844 3.715187 C -0.80325 3.683937 -0.900906 3.633156 -0.963406 3.598 C -1.025906 3.562844 -1.119656 3.508156 -1.17825 3.473 C -1.236844 3.433937 -1.326687 3.371437 -1.381375 3.332375 C -1.432156 3.293312 -1.518094 3.223 -1.568875 3.180031 C -1.619656 3.137062 -1.697781 3.06675 -1.744656 3.023781 C -1.791531 2.976906 -1.86575 2.902687 -1.908719 2.855812 C -1.951687 2.808937 -2.014187 2.726906 -2.05325 2.680031 C -2.096219 2.62925 -2.154812 2.547219 -2.189969 2.496437 C -2.225125 2.445656 -2.279812 2.363625 -2.311062 2.312844 C -2.342312 2.258156 -2.389187 2.172219 -2.416531 2.121437 C -2.443875 2.06675 -2.486844 1.980812 -2.510281 1.926125 C -2.533719 1.871437 -2.568875 1.7855 -2.588406 1.730812 C -2.607937 1.676125 -2.635281 1.586281 -2.650906 1.531594 C -2.666531 1.476906 -2.689969 1.387062 -2.701687 1.332375 C -2.713406 1.277687 -2.729031 1.187844 -2.736844 1.133156 C -2.744656 1.078469 -2.756375 0.992531 -2.760281 0.937844 C -2.764187 0.883156 -2.768094 0.797219 -2.768094 0.742531 C -2.768094 0.687844 -2.768094 0.601906 -2.768094 0.551125 C -2.764187 0.496437 -2.756375 0.414406 -2.752469 0.363625 C -2.744656 0.308937 -2.732937 0.230812 -2.725125 0.180031 C -2.713406 0.12925 -2.686062 0.00034375 -2.686062 0.00034375 " transform="matrix(1,0,0,-1,14.147,20.473)"/>
<path style="fill:none;stroke-width:0.15565;stroke-linecap:butt;stroke-linejoin:miter;stroke:rgb(0%,0%,0%);stroke-opacity:1;stroke-miterlimit:10;" d="M -2.686062 0.00034375 C -2.686062 0.00034375 -2.650906 -0.124656 -2.635281 -0.171531 C -2.619656 -0.218406 -2.596219 -0.292625 -2.576687 -0.3395 C -2.561062 -0.382469 -2.529812 -0.456688 -2.506375 -0.499656 C -2.486844 -0.542625 -2.451687 -0.609031 -2.42825 -0.652 C -2.404812 -0.691063 -2.369656 -0.757469 -2.342312 -0.796531 C -2.318875 -0.835594 -2.275906 -0.894188 -2.248562 -0.93325 C -2.221219 -0.968406 -2.17825 -1.027 -2.147 -1.05825 C -2.119656 -1.093406 -2.068875 -1.144188 -2.041531 -1.179344 C -2.010281 -1.210594 -1.9595 -1.257469 -1.92825 -1.288719 C -1.897 -1.316063 -1.842312 -1.359031 -1.807156 -1.386375 C -1.775906 -1.413719 -1.721219 -1.452781 -1.686062 -1.480125 C -1.650906 -1.503563 -1.596219 -1.538719 -1.561062 -1.55825 C -1.525906 -1.581688 -1.467312 -1.612938 -1.432156 -1.632469 C -1.397 -1.652 -1.338406 -1.679344 -1.299344 -1.694969 C -1.264187 -1.710594 -1.205594 -1.734031 -1.166531 -1.74575 C -1.131375 -1.761375 -1.068875 -1.777 -1.033719 -1.788719 C -0.994656 -1.800438 -0.936062 -1.816063 -0.897 -1.823875 C -0.861844 -1.831688 -0.80325 -1.843406 -0.764187 -1.847313 C -0.729031 -1.855125 -0.670437 -1.859031 -0.631375 -1.862938 C -0.596219 -1.866844 -0.537625 -1.87075 -0.502469 -1.87075 C -0.463406 -1.87075 -0.408719 -1.87075 -0.369656 -1.866844 C -0.3345 -1.866844 -0.279812 -1.862938 -0.244656 -1.859031 C -0.2095 -1.851219 -0.154812 -1.843406 -0.119656 -1.8395 C -0.0884062 -1.831688 0.0014375 -1.812156 0.0014375 -1.812156 " transform="matrix(1,0,0,-1,14.147,20.473)"/>
<path style="fill:none;stroke-width:0.14009;stroke-linecap:butt;stroke-linejoin:miter;stroke:rgb(0%,0%,0%);stroke-opacity:1;stroke-miterlimit:10;" d="M 0.0014375 -1.812156 C 0.0014375 -1.812156 0.0834688 -1.788719 0.114719 -1.780906 C 0.149875 -1.769188 0.19675 -1.749656 0.228 -1.737938 C 0.25925 -1.726219 0.306125 -1.706688 0.337375 -1.694969 C 0.364719 -1.679344 0.411594 -1.655906 0.438938 -1.640281 C 0.466281 -1.624656 0.50925 -1.597313 0.536594 -1.581688 C 0.563938 -1.562156 0.603 -1.538719 0.630344 -1.519188 C 0.653781 -1.499656 0.692844 -1.468406 0.716281 -1.448875 C 0.735813 -1.429344 0.774875 -1.398094 0.794406 -1.378563 C 0.817844 -1.355125 0.849094 -1.323875 0.868625 -1.300438 C 0.888156 -1.280906 0.919406 -1.241844 0.935031 -1.222313 C 0.954563 -1.198875 0.981906 -1.159813 0.997531 -1.136375 C 1.013156 -1.112938 1.036594 -1.077781 1.052219 -1.050438 C 1.067844 -1.027 1.087375 -0.991844 1.103 -0.9645 C 1.114719 -0.941063 1.130344 -0.902 1.142063 -0.878563 C 1.153781 -0.851219 1.169406 -0.812156 1.177219 -0.788719 C 1.188938 -0.761375 1.200656 -0.722313 1.208469 -0.698875 C 1.216281 -0.671531 1.224094 -0.632469 1.231906 -0.605125 C 1.235813 -0.581688 1.243625 -0.542625 1.247531 -0.515281 C 1.251438 -0.491844 1.255344 -0.452781 1.25925 -0.425438 C 1.25925 -0.402 1.263156 -0.362938 1.263156 -0.3395 C 1.263156 -0.312156 1.25925 -0.273094 1.25925 -0.249656 C 1.25925 -0.226219 1.255344 -0.187156 1.251438 -0.163719 C 1.251438 -0.140281 1.243625 -0.105125 1.239719 -0.0816875 C 1.235813 -0.05825 1.224094 0.00034375 1.224094 0.00034375 " transform="matrix(1,0,0,-1,14.147,20.473)"/>
<path style="fill:none;stroke-width:0.12453;stroke-linecap:butt;stroke-linejoin:miter;stroke:rgb(0%,0%,0%);stroke-opacity:1;stroke-miterlimit:10;" d="M 1.224094 0.00034375 C 1.224094 0.00034375 1.208469 0.0589375 1.200656 0.0784687 C 1.192844 0.101906 1.181125 0.133156 1.173313 0.152687 C 1.1655 0.176125 1.153781 0.207375 1.142063 0.226906 C 1.13425 0.246437 1.114719 0.277687 1.106906 0.297219 C 1.095188 0.31675 1.079563 0.344094 1.067844 0.363625 C 1.056125 0.37925 1.036594 0.406594 1.024875 0.422219 C 1.013156 0.44175 0.989719 0.465187 0.978 0.480812 C 0.966281 0.496437 0.942844 0.523781 0.931125 0.5355 C 0.9155 0.551125 0.892063 0.570656 0.876438 0.586281 C 0.860813 0.598 0.837375 0.617531 0.82175 0.633156 C 0.806125 0.644875 0.782688 0.6605 0.767063 0.672219 C 0.751438 0.683937 0.728 0.703469 0.712375 0.711281 C 0.69675 0.723 0.669406 0.734719 0.653781 0.742531 C 0.63425 0.750344 0.606906 0.762062 0.591281 0.769875 C 0.575656 0.777687 0.548313 0.789406 0.532688 0.797219 C 0.517063 0.801125 0.485813 0.808937 0.470188 0.81675 C 0.454563 0.820656 0.427219 0.828469 0.407688 0.832375 C 0.392063 0.836281 0.364719 0.836281 0.349094 0.840187 C 0.329563 0.844094 0.306125 0.848 0.286594 0.848 C 0.270969 0.848 0.243625 0.851906 0.228 0.851906 C 0.212375 0.851906 0.185031 0.851906 0.169406 0.851906 C 0.153781 0.848 0.126438 0.848 0.110813 0.844094 C 0.0951875 0.844094 0.07175 0.840187 0.056125 0.836281 C 0.0405 0.832375 0.0014375 0.824562 0.0014375 0.824562 " transform="matrix(1,0,0,-1,14.147,20.473)"/>
<path style="fill:none;stroke-width:0.10896;stroke-linecap:butt;stroke-linejoin:miter;stroke:rgb(0%,0%,0%);stroke-opacity:1;stroke-miterlimit:10;" d="M 0.0014375 0.824562 C 0.0014375 0.824562 -0.037625 0.81675 -0.05325 0.812844 C -0.068875 0.808937 -0.0923125 0.797219 -0.104031 0.793312 C -0.119656 0.7855 -0.139187 0.777687 -0.150906 0.769875 C -0.166531 0.762062 -0.186062 0.75425 -0.201687 0.746437 C -0.213406 0.738625 -0.232937 0.726906 -0.244656 0.719094 C -0.256375 0.711281 -0.275906 0.699562 -0.287625 0.69175 C -0.295437 0.683937 -0.314969 0.668312 -0.326687 0.6605 C -0.3345 0.652687 -0.354031 0.637062 -0.361844 0.62925 C -0.373562 0.617531 -0.385281 0.601906 -0.393094 0.590187 C -0.404812 0.582375 -0.416531 0.56675 -0.424344 0.555031 C -0.436062 0.543312 -0.447781 0.527687 -0.455594 0.515969 C -0.4595 0.508156 -0.471219 0.488625 -0.479031 0.476906 C -0.486844 0.469094 -0.494656 0.449562 -0.498562 0.437844 C -0.506375 0.430031 -0.514187 0.4105 -0.522 0.398781 C -0.525906 0.387062 -0.533719 0.371437 -0.537625 0.359719 C -0.541531 0.348 -0.545437 0.328469 -0.549344 0.31675 C -0.55325 0.305031 -0.557156 0.2855 -0.561062 0.273781 C -0.561062 0.265969 -0.564969 0.246437 -0.568875 0.234719 C -0.568875 0.223 -0.568875 0.203469 -0.572781 0.195656 C -0.572781 0.183937 -0.572781 0.164406 -0.576687 0.152687 C -0.576687 0.140969 -0.572781 0.125344 -0.572781 0.113625 C -0.572781 0.101906 -0.572781 0.0862812 -0.568875 0.0745625 C -0.568875 0.0628437 -0.568875 0.0472187 -0.564969 0.0355 C -0.564969 0.0276875 -0.557156 0.00034375 -0.557156 0.00034375 " transform="matrix(1,0,0,-1,14.147,20.473)"/>
<path style="fill:none;stroke-width:0.0934;stroke-linecap:butt;stroke-linejoin:miter;stroke:rgb(0%,0%,0%);stroke-opacity:1;stroke-miterlimit:10;" d="M -0.557156 0.00034375 C -0.557156 0.00034375 -0.549344 -0.027 -0.545437 -0.0348125 C -0.541531 -0.0465313 -0.537625 -0.0621563 -0.533719 -0.0699688 C -0.529812 -0.0777813 -0.522 -0.0934063 -0.518094 -0.101219 C -0.514187 -0.112938 -0.506375 -0.124656 -0.502469 -0.136375 C -0.498562 -0.144188 -0.49075 -0.155906 -0.486844 -0.163719 C -0.479031 -0.171531 -0.471219 -0.187156 -0.467312 -0.191063 C -0.4595 -0.198875 -0.451687 -0.210594 -0.443875 -0.218406 C -0.439969 -0.226219 -0.42825 -0.237938 -0.420437 -0.241844 C -0.416531 -0.249656 -0.408719 -0.261375 -0.400906 -0.269188 C -0.393094 -0.273094 -0.381375 -0.280906 -0.373562 -0.288719 C -0.369656 -0.292625 -0.357937 -0.300438 -0.350125 -0.304344 C -0.342312 -0.312156 -0.330594 -0.316063 -0.322781 -0.323875 C -0.314969 -0.327781 -0.30325 -0.335594 -0.295437 -0.3395 C -0.291531 -0.343406 -0.275906 -0.347313 -0.268094 -0.351219 C -0.260281 -0.355125 -0.248562 -0.359031 -0.24075 -0.362938 C -0.232937 -0.366844 -0.221219 -0.366844 -0.213406 -0.37075 C -0.205594 -0.37075 -0.193875 -0.378563 -0.186062 -0.378563 C -0.17825 -0.378563 -0.166531 -0.382469 -0.158719 -0.382469 C -0.150906 -0.382469 -0.139187 -0.386375 -0.131375 -0.386375 C -0.123562 -0.386375 -0.111844 -0.390281 -0.104031 -0.390281 C -0.0962187 -0.390281 -0.0845 -0.386375 -0.0766875 -0.386375 C -0.068875 -0.386375 -0.0571562 -0.386375 -0.0493437 -0.386375 C -0.0415312 -0.382469 -0.0298125 -0.382469 -0.0259062 -0.382469 C -0.0180937 -0.378563 0.0014375 -0.374656 0.0014375 -0.374656 " transform="matrix(1,0,0,-1,14.147,20.473)"/>
<path style="fill:none;stroke-width:0.07782;stroke-linecap:butt;stroke-linejoin:miter;stroke:rgb(0%,0%,0%);stroke-opacity:1;stroke-miterlimit:10;" d="M 0.0014375 -0.374656 C 0.0014375 -0.374656 0.0170625 -0.37075 0.024875 -0.366844 C 0.0287813 -0.366844 0.0405 -0.362938 0.0483125 -0.359031 C 0.0522188 -0.355125 0.0639375 -0.351219 0.0678438 -0.351219 C 0.0756563 -0.347313 0.0834688 -0.343406 0.0912813 -0.3395 C 0.0951875 -0.335594 0.106906 -0.331688 0.110813 -0.327781 C 0.114719 -0.323875 0.126438 -0.316063 0.130344 -0.312156 C 0.13425 -0.312156 0.142063 -0.304344 0.145969 -0.300438 C 0.153781 -0.296531 0.157688 -0.288719 0.1655 -0.284813 C 0.169406 -0.280906 0.173313 -0.273094 0.177219 -0.269188 C 0.181125 -0.265281 0.188938 -0.257469 0.192844 -0.253563 C 0.19675 -0.24575 0.204563 -0.241844 0.208469 -0.237938 C 0.212375 -0.230125 0.216281 -0.222313 0.216281 -0.218406 C 0.220188 -0.2145 0.224094 -0.206688 0.228 -0.198875 C 0.228 -0.194969 0.231906 -0.187156 0.235813 -0.179344 C 0.239719 -0.175438 0.243625 -0.167625 0.243625 -0.163719 C 0.247531 -0.159813 0.247531 -0.148094 0.251438 -0.144188 C 0.251438 -0.140281 0.251438 -0.128563 0.255344 -0.124656 C 0.255344 -0.12075 0.25925 -0.112938 0.25925 -0.109031 C 0.25925 -0.101219 0.25925 -0.0934063 0.263156 -0.0895 C 0.263156 -0.0816875 0.263156 -0.073875 0.263156 -0.0699688 C 0.263156 -0.0660625 0.263156 -0.05825 0.263156 -0.0504375 C 0.263156 -0.0465313 0.25925 -0.0387188 0.25925 -0.0348125 C 0.25925 -0.0309063 0.25925 -0.0230938 0.25925 -0.0152813 C 0.255344 -0.011375 0.255344 0.00034375 0.255344 0.00034375 " transform="matrix(1,0,0,-1,14.147,20.473)"/>
<path style="fill:none;stroke-width:0.06226;stroke-linecap:butt;stroke-linejoin:miter;stroke:rgb(0%,0%,0%);stroke-opacity:1;stroke-miterlimit:10;" d="M 0.255344 0.00034375 C 0.255344 0.00034375 0.251438 0.0120625 0.251438 0.0159687 C 0.247531 0.019875 0.247531 0.0276875 0.243625 0.0315937 C 0.243625 0.0355 0.239719 0.0433125 0.235813 0.0472187 C 0.235813 0.051125 0.231906 0.0589375 0.231906 0.0628437 C 0.228 0.06675 0.224094 0.0706562 0.220188 0.0745625 C 0.220188 0.0784687 0.216281 0.082375 0.212375 0.0862812 C 0.208469 0.0901875 0.204563 0.098 0.204563 0.101906 C 0.200656 0.101906 0.19675 0.109719 0.192844 0.109719 C 0.188938 0.113625 0.185031 0.117531 0.181125 0.121437 C 0.181125 0.125344 0.173313 0.12925 0.169406 0.12925 C 0.169406 0.133156 0.161594 0.137062 0.157688 0.140969 C 0.157688 0.140969 0.149875 0.144875 0.145969 0.148781 C 0.145969 0.148781 0.138156 0.152687 0.13425 0.152687 C 0.130344 0.156594 0.126438 0.1605 0.122531 0.1605 C 0.118625 0.1605 0.114719 0.164406 0.110813 0.164406 C 0.106906 0.168312 0.103 0.168312 0.0990938 0.168312 C 0.0951875 0.172219 0.087375 0.172219 0.0834688 0.172219 C 0.0795625 0.172219 0.0756563 0.176125 0.07175 0.176125 C 0.0678438 0.176125 0.0639375 0.176125 0.0600313 0.176125 C 0.056125 0.176125 0.0522188 0.176125 0.0483125 0.176125 C 0.0444063 0.176125 0.0365938 0.176125 0.0365938 0.176125 C 0.0326875 0.176125 0.024875 0.176125 0.0209688 0.176125 C 0.0209688 0.176125 0.0131563 0.176125 0.0131563 0.176125 C 0.00925 0.172219 0.0014375 0.172219 0.0014375 0.172219 " transform="matrix(1,0,0,-1,14.147,20.473)"/>
<path style="fill:none;stroke-width:0.04669;stroke-linecap:butt;stroke-linejoin:miter;stroke:rgb(0%,0%,0%);stroke-opacity:1;stroke-miterlimit:10;" d="M 0.0014375 0.172219 C 0.0014375 0.172219 -0.006375 0.168312 -0.0102812 0.168312 C -0.0141875 0.168312 -0.0180937 0.164406 -0.022 0.164406 C -0.0259062 0.164406 -0.0298125 0.1605 -0.0298125 0.1605 C -0.0337187 0.1605 -0.037625 0.156594 -0.0415312 0.156594 C -0.0454375 0.152687 -0.0493437 0.152687 -0.0493437 0.148781 C -0.05325 0.148781 -0.0571562 0.144875 -0.0610625 0.144875 C -0.0610625 0.140969 -0.0649687 0.137062 -0.068875 0.137062 C -0.068875 0.137062 -0.0727812 0.133156 -0.0766875 0.12925 C -0.0766875 0.12925 -0.0805937 0.125344 -0.0805937 0.121437 C -0.0845 0.121437 -0.0884062 0.117531 -0.0884062 0.113625 C -0.0884062 0.113625 -0.0923125 0.109719 -0.0962187 0.105812 C -0.0962187 0.105812 -0.0962187 0.101906 -0.100125 0.098 C -0.100125 0.098 -0.104031 0.0940937 -0.104031 0.0901875 C -0.104031 0.0901875 -0.107937 0.0862812 -0.107937 0.082375 C -0.107937 0.082375 -0.111844 0.0784687 -0.111844 0.0745625 C -0.111844 0.0706562 -0.111844 0.06675 -0.11575 0.06675 C -0.11575 0.0628437 -0.11575 0.0589375 -0.11575 0.0589375 C -0.11575 0.0550312 -0.119656 0.051125 -0.119656 0.0472187 C -0.119656 0.0472187 -0.119656 0.0433125 -0.119656 0.0394062 C -0.119656 0.0394062 -0.119656 0.0355 -0.119656 0.0315937 C -0.119656 0.0315937 -0.119656 0.0237812 -0.119656 0.0237812 C -0.119656 0.019875 -0.119656 0.0159687 -0.119656 0.0159687 C -0.119656 0.0120625 -0.11575 0.00815625 -0.11575 0.00815625 C -0.11575 0.00425 -0.11575 0.00034375 -0.11575 0.00034375 " transform="matrix(1,0,0,-1,14.147,20.473)"/>
<path style="fill:none;stroke-width:0.03113;stroke-linecap:butt;stroke-linejoin:miter;stroke:rgb(0%,0%,0%);stroke-opacity:1;stroke-miterlimit:10;" d="M -0.11575 0.00034375 C -0.11575 0.00034375 -0.11575 -0.0035625 -0.111844 -0.00746875 C -0.111844 -0.00746875 -0.111844 -0.011375 -0.111844 -0.0152813 C -0.111844 -0.0152813 -0.107937 -0.0191875 -0.107937 -0.0230938 C -0.107937 -0.0230938 -0.104031 -0.027 -0.104031 -0.027 C -0.104031 -0.0309063 -0.100125 -0.0309063 -0.100125 -0.0348125 C -0.100125 -0.0348125 -0.0962187 -0.0387188 -0.0962187 -0.0387188 C -0.0962187 -0.042625 -0.0923125 -0.042625 -0.0923125 -0.0465313 C -0.0923125 -0.0465313 -0.0884062 -0.0504375 -0.0884062 -0.0504375 C -0.0884062 -0.0504375 -0.0845 -0.0543438 -0.0845 -0.0543438 C -0.0805937 -0.05825 -0.0805937 -0.05825 -0.0766875 -0.05825 C -0.0766875 -0.0621563 -0.0727812 -0.0621563 -0.0727812 -0.0621563 C -0.0727812 -0.0660625 -0.068875 -0.0660625 -0.068875 -0.0660625 C -0.0649687 -0.0660625 -0.0610625 -0.0699688 -0.0610625 -0.0699688 C -0.0610625 -0.0699688 -0.0571562 -0.073875 -0.0571562 -0.073875 C -0.05325 -0.073875 -0.05325 -0.073875 -0.0493437 -0.073875 C -0.0493437 -0.073875 -0.0454375 -0.0777813 -0.0454375 -0.0777813 C -0.0415312 -0.0777813 -0.0415312 -0.0777813 -0.037625 -0.0777813 C -0.037625 -0.0777813 -0.0337187 -0.0777813 -0.0337187 -0.0777813 C -0.0298125 -0.0777813 -0.0298125 -0.0816875 -0.0259062 -0.0816875 C -0.0259062 -0.0816875 -0.022 -0.0816875 -0.022 -0.0816875 C -0.0180937 -0.0816875 -0.0180937 -0.0816875 -0.0141875 -0.0816875 C -0.0141875 -0.0816875 -0.0102812 -0.0816875 -0.0102812 -0.0816875 C -0.0102812 -0.0816875 -0.006375 -0.0777813 -0.006375 -0.0777813 C -0.00246875 -0.0777813 0.0014375 -0.0777813 0.0014375 -0.0777813 " transform="matrix(1,0,0,-1,14.147,20.473)"/>
<path style="fill:none;stroke-width:0.01556;stroke-linecap:butt;stroke-linejoin:miter;stroke:rgb(0%,0%,0%);stroke-opacity:1;stroke-miterlimit:10;" d="M 0.0014375 -0.0777813 C 0.0014375 -0.0777813 0.00534375 -0.0777813 0.00534375 -0.0777813 C 0.00534375 -0.0777813 0.00925 -0.073875 0.00925 -0.073875 C 0.00925 -0.073875 0.0131563 -0.073875 0.0131563 -0.073875 C 0.0170625 -0.073875 0.0170625 -0.0699688 0.0170625 -0.0699688 C 0.0209688 -0.0699688 0.0209688 -0.0699688 0.0209688 -0.0660625 C 0.024875 -0.0660625 0.024875 -0.0660625 0.024875 -0.0660625 C 0.0287813 -0.0660625 0.0287813 -0.0621563 0.0287813 -0.0621563 C 0.0326875 -0.0621563 0.0326875 -0.05825 0.0326875 -0.05825 C 0.0326875 -0.05825 0.0365938 -0.05825 0.0365938 -0.0543438 C 0.0365938 -0.0543438 0.0405 -0.0543438 0.0405 -0.0504375 C 0.0405 -0.0504375 0.0405 -0.0504375 0.0444063 -0.0504375 C 0.0444063 -0.0465313 0.0444063 -0.0465313 0.0444063 -0.0465313 C 0.0444063 -0.042625 0.0483125 -0.042625 0.0483125 -0.042625 C 0.0483125 -0.0387188 0.0483125 -0.0387188 0.0483125 -0.0387188 C 0.0483125 -0.0348125 0.0483125 -0.0348125 0.0522188 -0.0348125 C 0.0522188 -0.0309063 0.0522188 -0.0309063 0.0522188 -0.0309063 C 0.0522188 -0.027 0.0522188 -0.027 0.0522188 -0.027 C 0.0522188 -0.0230938 0.0522188 -0.0230938 0.0522188 -0.0230938 C 0.0522188 -0.0191875 0.0522188 -0.0191875 0.0522188 -0.0191875 C 0.0522188 -0.0152813 0.0522188 -0.0152813 0.0522188 -0.0152813 C 0.0522188 -0.011375 0.0522188 -0.011375 0.0522188 -0.011375 C 0.0522188 -0.00746875 0.0522188 -0.00746875 0.0522188 -0.00746875 C 0.0522188 -0.00746875 0.0522188 -0.0035625 0.0522188 -0.0035625 C 0.0522188 -0.0035625 0.0522188 0.00034375 0.0522188 0.00034375 " transform="matrix(1,0,0,-1,14.147,20.473)"/>
<path style="fill:none;stroke-width:0.12;stroke-linecap:butt;stroke-linejoin:miter;stroke:rgb(0%,0%,0%);stroke-opacity:1;stroke-miterlimit:10;" d="M 0.0522188 0.00034375 C 0.0522188 0.00034375 0.0522188 0.00034375 0.0522188 0.00425 C 0.0522188 0.00425 0.0522188 0.00425 0.0483125 0.00815625 C 0.0483125 0.0120625 0.0483125 0.0120625 0.0483125 0.0120625 C 0.0483125 0.0120625 0.0483125 0.0159687 0.0444063 0.0159687 C 0.0444063 0.0159687 0.0444063 0.0159687 0.0444063 0.019875 C 0.0444063 0.019875 0.0444063 0.019875 0.0405 0.019875 C 0.0405 0.019875 0.0405 0.0237812 0.0405 0.0237812 C 0.0405 0.0237812 0.0365938 0.0237812 0.0365938 0.0237812 C 0.0365938 0.0237812 0.0365938 0.0276875 0.0365938 0.0276875 C 0.0326875 0.0276875 0.0326875 0.0276875 0.0326875 0.0276875 C 0.0326875 0.0276875 0.0326875 0.0315937 0.0287813 0.0315937 C 0.0287813 0.0315937 0.024875 0.0315937 0.024875 0.0315937 C 0.024875 0.0315937 0.024875 0.0315937 0.0209688 0.0355 C 0.0209688 0.0355 0.0170625 0.0355 0.0170625 0.0355 C 0.0170625 0.0355 0.0170625 0.0355 0.0131563 0.0355 C 0.0131563 0.0355 0.00925 0.0355 0.00925 0.0355 C 0.00925 0.0355 0.00925 0.0355 0.00534375 0.0355 C 0.00534375 0.0355 0.0014375 0.0355 0.0014375 0.0355 " transform="matrix(1,0,0,-1,14.147,20.473)"/>
</g>
</svg>
