<?xml version="1.0" encoding="UTF-8"?>
<svg xmlns="http://www.w3.org/2000/svg" xmlns:xlink="http://www.w3.org/1999/xlink" width="356.2pt" height="238.84pt" viewBox="0 0 356.2 238.84" version="1.1">
<defs>
<clipPath id="clip1">
  <path d="M 0 0 L 356.199219 0 L 356.199219 238.839844 L 0 238.839844 Z M 0 0 "/>
</clipPath>
<clipPath id="clip2">
  <path d="M 83 11 L 345.5 11 L 345.5 228.140625 L 83 228.140625 Z M 83 11 "/>
</clipPath>
</defs>
<g id="surface1">
<g clip-path="url(#clip1)" clip-rule="nonzero">
<path style=" stroke:none;fill-rule:nonzero;fill:rgb(100%,100%,100%);fill-opacity:1;" d="M 0 238.839844 L 356.199219 238.839844 L 356.199219 0 L 0 0 Z M 0 238.839844 "/>
</g>
<path style=" stroke:none;fill-rule:nonzero;fill:rgb(100%,100%,100%);fill-opacity:1;" d="M 10.699219 228.140625 L 345.5 228.140625 L 345.5 10.699219 L 10.699219 10.699219 Z M 10.699219 228.140625 "/>
<g clip-path="url(#clip2)" clip-rule="nonzero">
<path style="fill:none;stroke-width:0.5;stroke-linecap:square;stroke-linejoin:round;stroke:rgb(0%,0%,0%);stroke-opacity:1;stroke-miterlimit:10;" d="M 180.621094 2.394688 L 180.851562 2.925938 L 181.195312 3.394688 L 182.21875 4.215 L 183.691406 4.972813 L 186.886719 6.207188 L 198.257812 10.273594 L 204.199219 12.632969 L 211.644531 15.894688 L 216.03125 17.980625 L 220.914062 20.449375 L 226.335938 23.382969 L 232.335938 26.863438 L 238.957031 30.99625 L 246.21875 35.9025 L 254.136719 41.711094 L 262.707031 48.570469 L 271.886719 56.629063 L 281.601562 66.039219 L 291.714844 76.929844 L 302.023438 89.386875 L 312.242188 103.422031 L 321.984375 118.937656 L 330.777344 135.672031 L 338.046875 153.160313 L 343.179688 170.726719 L 345.574219 187.476719 L 344.710938 202.394688 L 340.28125 214.441563 L 332.261719 222.769688 L 320.953125 226.879063 L 306.976562 226.742344 L 291.164062 222.80875 L 274.425781 215.898594 L 257.59375 207.000156 L 241.355469 197.101719 L 226.171875 187.0275 L 212.316406 177.379063 L 170.867188 147.957188 L 157.226562 138.7775 L 146.964844 132.195469 L 119.296875 115.082188 L 116.894531 113.820469 L 114.644531 112.87125 L 112.46875 112.250156 L 110.339844 111.972813 L 108.25 112.054844 L 106.207031 112.504063 L 104.25 113.316563 L 102.425781 114.472813 L 100.789062 115.945469 L 99.402344 117.68375 L 98.332031 119.613438 L 97.625 121.648594 L 97.324219 123.691563 L 97.449219 125.632969 L 97.671875 126.535313 L 97.996094 127.37125 L 98.417969 128.136875 L 98.933594 128.816563 L 99.535156 129.4025 L 100.214844 129.886875 L 100.960938 130.265781 L 101.765625 130.535313 L 102.617188 130.695469 L 103.507812 130.742344 L 105.347656 130.507969 L 107.195312 129.859531 L 108.972656 128.843906 L 110.609375 127.519688 L 112.039062 125.961094 L 113.21875 124.230625 L 114.113281 122.4025 L 114.703125 120.539219 L 114.972656 118.711094 L 114.921875 116.972813 L 114.554688 115.375156 L 113.886719 113.976719 L 112.933594 112.812656 L 111.722656 111.929844 L 110.292969 111.359531 L 108.679688 111.136875 L 106.933594 111.281406 L 105.121094 111.804844 L 103.304688 112.711094 L 101.5625 113.980625 L 99.96875 115.578281 L 98.613281 117.457188 L 97.5625 119.535313 L 96.886719 121.722813 L 96.632812 123.910313 L 96.671875 124.968906 L 96.824219 125.984531 L 97.085938 126.945469 L 97.457031 127.836094 L 97.933594 128.644688 L 98.503906 129.359531 L 99.164062 129.972813 L 99.90625 130.476719 L 100.71875 130.867344 L 101.589844 131.140781 L 102.511719 131.297031 L 103.464844 131.328281 L 104.445312 131.242344 L 106.425781 130.734531 L 108.363281 129.812656 L 110.179688 128.539219 L 111.796875 126.980625 L 113.167969 125.211094 L 114.25 123.312656 L 115.019531 121.347813 L 115.453125 119.390781 L 115.546875 117.504063 L 115.308594 115.74625 L 114.746094 114.168125 L 113.871094 112.820469 L 112.714844 111.742344 L 111.304688 110.980625 L 109.683594 110.570469 L 107.894531 110.535313 L 106 110.898594 L 104.0625 111.664219 L 102.164062 112.828281 L 100.382812 114.367344 L 98.808594 116.230625 L 97.523438 118.355625 L 96.609375 120.648594 L 96.121094 122.99625 L 96.050781 124.156406 L 96.101562 125.281406 L 96.273438 126.363438 L 96.5625 127.382969 L 96.96875 128.328281 L 97.484375 129.179844 L 98.101562 129.937656 L 98.816406 130.582188 L 99.617188 131.109531 L 100.488281 131.511875 L 101.425781 131.789219 L 102.410156 131.937656 L 103.433594 131.957188 L 104.476562 131.851719 L 105.535156 131.625156 L 107.628906 130.832188 L 109.625 129.629063 L 111.441406 128.093906 L 113.019531 126.30875 L 114.304688 124.343906 L 115.269531 122.285313 L 115.886719 120.203281 L 116.152344 118.168125 L 116.0625 116.242344 L 115.625 114.480625 L 114.851562 112.93375 L 113.769531 111.656406 L 112.402344 110.687656 L 110.792969 110.066563 L 108.976562 109.828281 L 107.015625 110.000156 L 104.972656 110.597813 L 102.925781 111.625156 L 100.960938 113.066563 L 99.164062 114.882969 L 97.628906 117.019688 L 96.449219 119.386875 L 96.015625 120.625156 L 95.695312 121.882969 L 95.5 123.136875 L 95.429688 124.375156 L 95.488281 125.578281 L 95.671875 126.730625 L 95.988281 127.816563 L 96.425781 128.820469 L 96.984375 129.730625 L 97.652344 130.531406 L 98.417969 131.211094 L 99.277344 131.765781 L 100.214844 132.187656 L 101.21875 132.472813 L 102.273438 132.62125 L 103.367188 132.632969 L 104.480469 132.507969 L 105.605469 132.254063 L 106.730469 131.879063 L 108.910156 130.785313 L 110.941406 129.304844 L 112.738281 127.519688 L 114.25 125.511875 L 115.433594 123.367344 L 116.257812 121.168125 L 116.714844 118.984531 L 116.796875 116.886875 L 116.507812 114.93375 L 115.863281 113.18375 L 114.878906 111.687656 L 113.582031 110.492344 L 112.828125 110.023594 L 112.003906 109.644688 L 111.125 109.363438 L 110.1875 109.18375 L 108.183594 109.136875 L 106.050781 109.535313 L 103.871094 110.386875 L 101.722656 111.687656 L 99.703125 113.418125 L 97.910156 115.5275 L 97.132812 116.699375 L 96.445312 117.937656 L 95.863281 119.226719 L 95.398438 120.547031 L 95.054688 121.886875 L 94.839844 123.226719 L 94.761719 124.550938 L 94.824219 125.84 L 95.023438 127.074375 L 95.359375 128.234531 L 95.828125 129.30875 L 96.421875 130.281406 L 97.136719 131.132969 L 97.960938 131.859531 L 98.882812 132.449375 L 99.886719 132.898594 L 100.957031 133.195469 L 102.085938 133.347813 L 103.253906 133.355625 L 104.441406 133.215 L 105.644531 132.937656 L 106.839844 132.531406 L 108.015625 132.000156 L 110.261719 130.609531 L 112.296875 128.851719 L 114.054688 126.820469 L 115.480469 124.605625 L 116.539062 122.293125 L 117.214844 119.968906 L 117.496094 117.695469 L 117.390625 115.550938 L 116.898438 113.586094 L 116.039062 111.863438 L 115.480469 111.105625 L 114.835938 110.429844 L 114.117188 109.836094 L 113.320312 109.336094 L 112.457031 108.929844 L 111.527344 108.62125 L 110.542969 108.422031 L 109.503906 108.332188 L 108.425781 108.355625 L 107.308594 108.492344 L 106.167969 108.754063 L 105.011719 109.132969 L 103.851562 109.632969 L 102.699219 110.254063 L 101.566406 110.99625 L 100.460938 111.851719 L 99.40625 112.816563 L 98.40625 113.882969 L 97.480469 115.043125 L 96.640625 116.289219 L 95.898438 117.605625 L 95.269531 118.976719 L 94.757812 120.386875 L 94.382812 121.816563 L 94.144531 123.254063 L 94.050781 124.672031 L 94.105469 126.050938 L 94.308594 127.375156 L 94.660156 128.625156 L 95.15625 129.781406 L 95.789062 130.824375 L 96.550781 131.742344 L 97.425781 132.523594 L 98.410156 133.156406 L 99.480469 133.636875 L 100.625 133.961094 L 101.832031 134.125156 L 103.074219 134.129063 L 104.347656 133.984531 L 105.628906 133.687656 L 106.902344 133.250156 L 108.15625 132.68375 L 109.375 131.99625 L 110.546875 131.199375 L 112.710938 129.328281 L 114.578125 127.172031 L 116.089844 124.824375 L 117.214844 122.375156 L 117.933594 119.914219 L 118.242188 117.515781 L 118.136719 115.242344 L 117.632812 113.164219 L 117.234375 112.215 L 116.742188 111.332188 L 116.160156 110.5275 L 115.488281 109.800938 L 114.734375 109.168125 L 113.902344 108.625156 L 112.996094 108.179844 L 112.023438 107.843906 L 110.988281 107.617344 L 109.894531 107.504063 L 108.757812 107.511875 L 107.578125 107.640781 L 106.371094 107.894688 L 105.144531 108.2775 L 103.914062 108.789219 L 102.683594 109.429844 L 101.472656 110.195469 L 100.292969 111.086094 L 99.15625 112.097813 L 98.082031 113.218906 L 97.078125 114.445469 L 96.167969 115.757969 L 95.359375 117.1525 L 94.667969 118.613438 L 94.105469 120.117344 L 93.679688 121.644688 L 93.40625 123.18375 L 93.285156 124.703281 L 93.328125 126.191563 L 93.527344 127.617344 L 93.886719 128.965 L 94.402344 130.215 L 95.066406 131.343906 L 95.867188 132.343906 L 96.796875 133.191563 L 97.839844 133.882969 L 98.980469 134.410313 L 100.203125 134.765781 L 101.484375 134.953281 L 102.816406 134.968906 L 104.171875 134.816563 L 105.539062 134.507969 L 106.898438 134.050938 L 108.234375 133.453281 L 109.539062 132.722813 L 110.789062 131.882969 L 111.980469 130.93375 L 114.136719 128.789219 L 115.945312 126.386875 L 117.363281 123.84 L 118.355469 121.230625 L 118.917969 118.648594 L 119.046875 116.164219 L 118.75 113.847813 L 118.445312 112.769688 L 118.035156 111.757969 L 117.53125 110.816563 L 116.929688 109.953281 L 116.238281 109.175938 L 115.457031 108.488438 L 114.589844 107.898594 L 113.648438 107.410313 L 112.628906 107.031406 L 111.542969 106.765781 L 110.398438 106.62125 L 109.203125 106.601719 L 107.960938 106.707188 L 106.683594 106.949375 L 105.386719 107.324375 L 104.074219 107.836094 L 102.765625 108.488438 L 101.46875 109.273594 L 100.203125 110.191563 L 98.980469 111.242344 L 97.816406 112.410313 L 96.730469 113.695469 L 95.734375 115.082188 L 94.84375 116.554844 L 94.078125 118.101719 L 93.445312 119.703281 L 92.960938 121.336094 L 92.632812 122.984531 L 92.472656 124.62125 L 92.484375 126.222813 L 92.667969 127.769688 L 93.023438 129.230625 L 93.550781 130.59 L 94.238281 131.824375 L 95.074219 132.918125 L 96.050781 133.851719 L 97.152344 134.617344 L 98.359375 135.207188 L 99.65625 135.613438 L 101.023438 135.832188 L 102.441406 135.87125 L 103.886719 135.730625 L 105.347656 135.418125 L 106.804688 134.945469 L 108.234375 134.320469 L 109.628906 133.55875 L 110.96875 132.672031 L 112.242188 131.675938 L 113.445312 130.582188 L 114.558594 129.406406 L 116.503906 126.87125 L 118.03125 124.175938 L 119.117188 121.414219 L 119.746094 118.675938 L 119.917969 116.043125 L 119.835938 114.785313 L 119.644531 113.578281 L 119.34375 112.429844 L 118.933594 111.347813 L 118.421875 110.336094 L 117.8125 109.406406 L 117.101562 108.562656 L 116.296875 107.812656 L 115.40625 107.164219 L 114.425781 106.617344 L 113.371094 106.18375 L 112.238281 105.87125 L 111.042969 105.68375 L 109.789062 105.62125 L 108.484375 105.695469 L 107.140625 105.910313 L 105.765625 106.265781 L 104.375 106.765781 L 102.976562 107.414219 L 101.59375 108.207188 L 100.230469 109.144688 L 98.910156 110.218906 L 97.648438 111.429844 L 96.460938 112.765781 L 95.363281 114.218906 L 94.375 115.769688 L 93.515625 117.4025 L 92.796875 119.105625 L 92.230469 120.847813 L 91.832031 122.613438 L 91.613281 124.375156 L 91.578125 126.109531 L 91.726562 127.785313 L 92.0625 129.379063 L 92.582031 130.867344 L 93.28125 132.230625 L 94.144531 133.437656 L 95.160156 134.480625 L 96.3125 135.343906 L 97.585938 136.015781 L 98.957031 136.492344 L 100.410156 136.769688 L 101.917969 136.843906 L 103.464844 136.730625 L 105.023438 136.429844 L 106.582031 135.953281 L 108.117188 135.312656 L 109.613281 134.523594 L 111.054688 133.597813 L 112.425781 132.554844 L 113.71875 131.406406 L 114.921875 130.172031 L 116.027344 128.863438 L 117.027344 127.49625 L 117.917969 126.086094 L 118.695312 124.644688 L 119.894531 121.722813 L 120.316406 120.265781 L 120.617188 118.824375 L 120.796875 117.406406 L 120.855469 116.023594 L 120.800781 114.68375 L 120.628906 113.394688 L 120.339844 112.164219 L 119.941406 111.000156 L 119.433594 109.914219 L 118.816406 108.9025 L 118.097656 107.984531 L 117.28125 107.160313 L 116.367188 106.437656 L 115.363281 105.820469 L 114.273438 105.324375 L 113.105469 104.945469 L 111.863281 104.695469 L 110.554688 104.582188 L 109.1875 104.605625 L 107.773438 104.773594 L 106.324219 105.093906 L 104.851562 105.566563 L 103.363281 106.191563 L 101.882812 106.976719 L 100.417969 107.914219 L 98.988281 109.004063 L 97.613281 110.242344 L 96.308594 111.617344 L 95.09375 113.125156 L 93.992188 114.74625 L 93.015625 116.465 L 92.183594 118.265781 L 91.515625 120.12125 L 91.023438 122.011875 L 90.714844 123.910313 L 90.605469 125.789219 L 90.699219 127.613438 L 90.992188 129.363438 L 91.488281 131.004063 L 92.175781 132.515781 L 93.046875 133.87125 L 94.089844 135.047031 L 95.289062 136.035313 L 96.617188 136.820469 L 98.0625 137.390781 L 99.597656 137.74625 L 101.203125 137.886875 L 102.851562 137.820469 L 104.519531 137.547031 L 106.191406 137.086094 L 107.839844 136.441563 L 109.453125 135.636875 L 111.007812 134.68375 L 112.492188 133.601719 L 113.894531 132.4025 L 115.203125 131.109531 L 116.40625 129.738438 L 117.503906 128.300938 L 118.480469 126.812656 L 119.339844 125.293125 L 120.074219 123.750156 L 120.683594 122.199375 L 121.167969 120.6525 L 121.523438 119.12125 L 121.753906 117.613438 L 121.863281 116.140781 L 121.84375 114.707188 L 121.703125 113.328281 L 121.445312 112.007969 L 121.066406 110.754063 L 120.574219 109.574375 L 119.96875 108.472813 L 119.253906 107.465 L 118.433594 106.550938 L 117.507812 105.742344 L 116.488281 105.043125 L 115.375 104.457188 L 114.175781 104.000156 L 112.890625 103.672031 L 111.535156 103.480625 L 110.113281 103.437656 L 108.636719 103.539219 L 107.113281 103.800938 L 105.554688 104.222813 L 103.976562 104.80875 L 102.390625 105.55875 L 100.816406 106.476719 L 99.269531 107.55875 L 97.765625 108.804844 L 96.332031 110.203281 L 94.980469 111.750156 L 93.738281 113.429844 L 92.621094 115.222813 L 91.652344 117.117344 L 90.851562 119.086094 L 90.230469 121.105625 L 89.808594 123.148594 L 89.59375 125.18375 L 89.59375 127.179844 L 89.8125 129.101719 L 90.253906 130.925938 L 90.90625 132.617344 L 91.761719 134.148594 L 92.8125 135.500156 L 94.035156 136.648594 L 95.414062 137.578281 L 96.921875 138.281406 L 98.539062 138.754063 L 100.234375 138.992344 L 101.988281 138.99625 L 103.773438 138.785313 L 105.566406 138.359531 L 107.347656 137.734531 L 109.085938 136.93375 L 110.773438 135.968906 L 112.390625 134.855625 L 113.917969 133.617344 L 115.351562 132.273594 L 116.675781 130.836094 L 117.886719 129.328281 L 118.972656 127.765781 L 119.933594 126.160313 L 120.761719 124.531406 L 121.460938 122.890781 L 122.027344 121.250156 L 122.460938 119.62125 L 122.757812 118.015781 L 122.929688 116.441563 L 122.964844 114.906406 L 122.875 113.425938 L 122.660156 112.000156 L 122.320312 110.644688 L 121.859375 109.359531 L 121.277344 108.156406 L 120.582031 107.043125 L 119.773438 106.0275 L 118.855469 105.113438 L 117.832031 104.30875 L 116.707031 103.62125 L 115.488281 103.062656 L 114.175781 102.632969 L 112.785156 102.347813 L 111.316406 102.207188 L 109.78125 102.222813 L 108.1875 102.398594 L 106.550781 102.738438 L 104.878906 103.254063 L 103.191406 103.945469 L 101.5 104.812656 L 99.828125 105.859531 L 98.1875 107.086094 L 96.605469 108.480625 L 95.097656 110.043125 L 93.691406 111.757969 L 92.40625 113.609531 L 91.269531 115.586094 L 90.296875 117.656406 L 89.511719 119.804844 L 88.929688 121.992344 L 88.566406 124.195469 L 88.433594 126.375156 L 88.535156 128.49625 L 88.878906 130.5275 L 89.457031 132.43375 L 90.265625 134.18375 L 91.289062 135.750156 L 92.511719 137.105625 L 93.914062 138.230625 L 95.472656 139.113438 L 97.15625 139.74625 L 98.945312 140.125156 L 100.804688 140.254063 L 102.710938 140.132969 L 104.636719 139.781406 L 106.554688 139.211094 L 108.445312 138.43375 L 110.28125 137.476719 L 112.046875 136.355625 L 113.726562 135.09 L 115.308594 133.703281 L 116.777344 132.215 L 118.125 130.640781 L 119.34375 129.004063 L 120.433594 127.316563 L 121.382812 125.597813 L 122.195312 123.859531 L 122.867188 122.117344 L 123.398438 120.386875 L 123.789062 118.672031 L 124.042969 116.988438 L 124.160156 115.343906 L 124.140625 113.74625 L 123.988281 112.207188 L 123.707031 110.734531 L 123.296875 109.332188 L 122.761719 108.007969 L 122.101562 106.773594 L 121.324219 105.632969 L 120.429688 104.597813 L 119.421875 103.668125 L 118.304688 102.859531 L 117.082031 102.172031 L 115.761719 101.62125 L 114.347656 101.207188 L 112.847656 100.945469 L 111.269531 100.84 L 109.617188 100.898594 L 107.910156 101.129063 L 106.15625 101.539219 L 104.367188 102.132969 L 102.5625 102.914219 L 100.757812 103.886875 L 98.972656 105.050938 L 97.226562 106.406406 L 95.546875 107.945469 L 93.953125 109.664219 L 92.472656 111.543125 L 91.125 113.574375 L 89.945312 115.726719 L 88.945312 117.984531 L 88.15625 120.316563 L 87.59375 122.687656 L 87.269531 125.062656 L 87.203125 127.406406 L 87.390625 129.675938 L 87.839844 131.836094 L 88.546875 133.847813 L 89.496094 135.675938 L 90.679688 137.297031 L 92.070312 138.675938 L 93.644531 139.800938 L 95.378906 140.660313 L 97.242188 141.238438 L 99.203125 141.543125 L 101.230469 141.574375 L 103.292969 141.347813 L 105.363281 140.87125 L 107.417969 140.164219 L 109.425781 139.250156 L 111.367188 138.148594 L 113.226562 136.879063 L 114.980469 135.468906 L 116.625 133.937656 L 118.140625 132.30875 L 119.527344 130.601719 L 120.773438 128.832188 L 121.875 127.023594 L 122.832031 125.187656 L 123.640625 123.34 L 124.300781 121.49625 L 124.8125 119.668125 L 125.179688 117.863438 L 125.402344 116.097813 L 125.480469 114.37125 L 125.421875 112.703281 L 125.222656 111.097813 L 124.890625 109.562656 L 124.425781 108.101719 L 123.828125 106.726719 L 123.105469 105.445469 L 122.261719 104.265781 L 121.292969 103.191563 L 120.207031 102.230625 L 119.007812 101.394688 L 117.699219 100.687656 L 116.285156 100.12125 L 114.773438 99.703281 L 113.171875 99.445469 L 111.484375 99.347813 L 109.722656 99.425938 L 107.898438 99.687656 L 106.019531 100.140781 L 104.109375 100.785313 L 102.175781 101.636875 L 100.246094 102.691563 L 98.332031 103.953281 L 96.464844 105.422031 L 94.664062 107.09 L 92.957031 108.949375 L 91.371094 110.988438 L 89.9375 113.187656 L 88.679688 115.523594 L 87.621094 117.972813 L 86.792969 120.49625 L 86.210938 123.066563 L 85.894531 125.636875 L 85.855469 128.168125 L 86.101562 130.613438 L 86.628906 132.93375 L 87.4375 135.086094 L 88.507812 137.035313 L 89.832031 138.74625 L 91.375 140.191563 L 93.117188 141.355625 L 95.023438 142.218906 L 97.0625 142.781406 L 99.199219 143.043125 L 101.402344 143.011875 L 103.632812 142.699375 L 105.859375 142.12125 L 108.0625 141.300938 L 110.207031 140.265781 L 112.269531 139.031406 L 114.238281 137.629063 L 116.09375 136.082188 L 117.820312 134.414219 L 119.410156 132.648594 L 120.851562 130.80875 L 122.144531 128.914219 L 123.285156 126.980625 L 124.269531 125.023594 L 125.097656 123.062656 L 125.769531 121.109531 L 126.285156 119.175938 L 126.648438 117.273594 L 126.863281 115.410313 L 126.925781 113.597813 L 126.847656 111.843906 L 126.625 110.156406 L 126.261719 108.543125 L 125.761719 107.007969 L 125.125 105.562656 L 124.359375 104.215 L 123.464844 102.968906 L 122.441406 101.836094 L 121.296875 100.820469 L 120.03125 99.929844 L 118.652344 99.179844 L 117.160156 98.570469 L 115.5625 98.113438 L 113.867188 97.824375 L 112.078125 97.703281 L 110.210938 97.769688 L 108.269531 98.023594 L 106.269531 98.480625 L 104.230469 99.144688 L 102.160156 100.0275 L 100.089844 101.125156 L 98.03125 102.453281 L 96.011719 104.000156 L 94.0625 105.765781 L 92.210938 107.74625 L 90.480469 109.922031 L 88.910156 112.2775 L 87.527344 114.793125 L 86.359375 117.43375 L 85.433594 120.164219 L 84.78125 122.949375 L 84.414062 125.742344 L 84.351562 128.49625 L 84.601562 131.164219 L 85.160156 133.695469 L 86.027344 136.043125 L 87.1875 138.168125 L 88.617188 140.031406 L 90.292969 141.605625 L 92.183594 142.867344 L 94.257812 143.800938 L 96.46875 144.398594 L 98.789062 144.672031 L 101.171875 144.62125 L 103.582031 144.265781 L 105.992188 143.625156 L 108.363281 142.722813 L 110.667969 141.586094 L 112.886719 140.24625 L 114.996094 138.722813 L 116.976562 137.054844 L 118.820312 135.257969 L 120.511719 133.363438 L 122.050781 131.394688 L 123.425781 129.367344 L 124.636719 127.304844 L 125.679688 125.226719 L 126.558594 123.140781 L 127.273438 121.070469 L 127.824219 119.019688 L 128.214844 117.004063 L 128.449219 115.031406 L 128.53125 113.113438 L 128.457031 111.257969 L 128.238281 109.468906 L 127.875 107.754063 " transform="matrix(1,0,0,-1,0,238.84)"/>
</g>
</g>
</svg>
